<svg width="64" height="58" viewBox="0 0 64 58" fill="none" xmlns="http://www.w3.org/2000/svg">
<g clip-path="url(#clip0)">
<mask id="mask0" mask-type="alpha" maskUnits="userSpaceOnUse" x="0" y="0" width="64" height="58">
<path d="M12.9848 4.46448C14.4745 1.88612 17.2275 0.297777 20.207 0.297777L43.7406 0.297779C46.72 0.29778 49.4731 1.88612 50.9628 4.46448L62.7296 24.8303C64.2193 27.4087 64.2193 30.5854 62.7296 33.1637L50.9628 53.5296C49.4731 56.1079 46.72 57.6963 43.7406 57.6963L20.207 57.6962C17.2276 57.6962 14.4745 56.1079 12.9848 53.5295L1.21795 33.1637C-0.271758 30.5853 -0.271758 27.4087 1.21795 24.8303L12.9848 4.46448Z" fill="#4B5EB2"/>
</mask>
<g mask="url(#mask0)">
<path d="M-8.24512 29.246H31.9996V69.4613H-8.24512V29.246Z" fill="#7DE064"/>
<path d="M31.9746 -10.9688H72.2193V29.2465H31.9746V-10.9688Z" fill="#F9BC4A"/>
<path fill-rule="evenodd" clip-rule="evenodd" d="M72.2445 29.2459H31.9998V41.4285L22.7622 57.5856H31.9998V69.4612H72.2445V29.2459Z" fill="#FF6767"/>
<path fill-rule="evenodd" clip-rule="evenodd" d="M31.9735 -10.9689H-8.27124V29.2464H31.9735V16.525L32 16.5714L41.2376 0.414218H31.9735V-10.9689Z" fill="#6398FF"/>
</g>
<path d="M44.0736 28.9982C44.0736 35.6888 38.6682 41.1126 32.0002 41.1126C25.3322 41.1126 19.9268 35.6888 19.9268 28.9982C19.9268 22.3076 25.3322 16.8838 32.0002 16.8838C38.6682 16.8838 44.0736 22.3076 44.0736 28.9982Z" fill="white"/>
</g>
<defs>
<clipPath id="clip0">
<rect width="64" height="58" fill="white"/>
</clipPath>
</defs>
</svg>
