<svg width="219" height="63" viewBox="0 0 219 63" fill="none" xmlns="http://www.w3.org/2000/svg">
<path d="M112.761 40.0291V48.6173H83V6.27258H112.224V14.8608H92.781V23.0912H109.48V31.0234H92.781V40.0291H112.761Z" fill="#333333"/>
<path d="M148.644 48.6173H139.101V31.0234C139.101 28.9559 138.704 27.4648 137.908 26.5504C137.153 25.5961 136.139 25.119 134.867 25.119C133.555 25.119 132.223 25.6359 130.871 26.6696C129.519 27.7034 128.565 29.0354 128.008 30.6656V48.6173H118.466V17.3061H127.054V22.5544C128.207 20.7255 129.837 19.2941 131.944 18.2603C134.052 17.2266 136.477 16.7097 139.22 16.7097C141.248 16.7097 142.878 17.0874 144.111 17.8428C145.383 18.5585 146.338 19.5128 146.974 20.7056C147.65 21.8586 148.087 23.131 148.286 24.5226C148.524 25.9142 148.644 27.266 148.644 28.5781V48.6173Z" fill="#333333"/>
<path d="M170.55 49.2138C167.051 49.2138 164.029 48.4583 161.485 46.9474C158.98 45.4365 157.051 43.4485 155.699 40.9834C154.387 38.5182 153.731 35.8344 153.731 32.9319C153.731 30.0691 154.387 27.4052 155.699 24.9401C157.051 22.4749 158.98 20.4869 161.485 18.976C163.989 17.4651 167.011 16.7097 170.55 16.7097C174.128 16.7097 177.15 17.485 179.615 19.0357C182.12 20.5465 183.989 22.5346 185.222 24.9997L175.918 27.8028C174.685 25.8148 172.876 24.8208 170.49 24.8208C168.542 24.8208 166.892 25.5564 165.54 27.0275C164.188 28.4986 163.512 30.4668 163.512 32.9319C163.512 35.397 164.188 37.3851 165.54 38.8959C166.892 40.4068 168.542 41.1623 170.49 41.1623C171.683 41.1623 172.777 40.884 173.771 40.3273C174.765 39.7309 175.5 38.9755 175.977 38.061L185.281 40.9237C184.128 43.3491 182.279 45.3371 179.735 46.8878C177.23 48.4384 174.168 49.2138 170.55 49.2138Z" fill="#333333"/>
<path d="M189.788 53.3289C191.418 53.8458 192.79 54.1043 193.903 54.1043C195.017 54.1043 195.891 53.7067 196.528 52.9115C197.204 52.1163 197.8 50.6849 198.317 48.6173L186.389 17.3061H196.229L203.506 38.8363L209.708 17.3061H218.714L206.786 53.6868C205.951 56.2712 204.44 58.3586 202.253 59.949C200.106 61.5792 197.581 62.3943 194.679 62.3943C193.009 62.3943 191.379 62.0961 189.788 61.4997V53.3289Z" fill="#333333"/>
<g clip-path="url(#clip0)">
<mask id="mask0" mask-type="alpha" maskUnits="userSpaceOnUse" x="0" y="0" width="64" height="58">
<path d="M12.9848 4.46448C14.4745 1.88612 17.2275 0.297777 20.207 0.297777L43.7406 0.297779C46.72 0.29778 49.4731 1.88612 50.9628 4.46448L62.7296 24.8303C64.2193 27.4087 64.2193 30.5854 62.7296 33.1637L50.9628 53.5296C49.4731 56.1079 46.72 57.6963 43.7406 57.6963L20.207 57.6962C17.2276 57.6962 14.4745 56.1079 12.9848 53.5295L1.21795 33.1637C-0.271758 30.5853 -0.271758 27.4087 1.21795 24.8303L12.9848 4.46448Z" fill="#4B5EB2"/>
</mask>
<g mask="url(#mask0)">
<path d="M-8.24512 29.246H31.9996V69.4613H-8.24512V29.246Z" fill="#79D362"/>
<path d="M31.9746 -10.9688H72.2193V29.2465H31.9746V-10.9688Z" fill="#F9BC4A"/>
<path fill-rule="evenodd" clip-rule="evenodd" d="M72.2445 29.2459H31.9998V41.4285L22.7622 57.5856H31.9998V69.4612H72.2445V29.2459Z" fill="#FF6767"/>
<path fill-rule="evenodd" clip-rule="evenodd" d="M31.9735 -10.9689H-8.27124V29.2464H31.9735V16.525L32 16.5714L41.2376 0.414218H31.9735V-10.9689Z" fill="#6398FF"/>
</g>
<path d="M44.0736 28.9982C44.0736 35.6888 38.6682 41.1126 32.0002 41.1126C25.3322 41.1126 19.9268 35.6888 19.9268 28.9982C19.9268 22.3076 25.3322 16.8838 32.0002 16.8838C38.6682 16.8838 44.0736 22.3076 44.0736 28.9982Z" fill="white"/>
</g>
<defs>
<clipPath id="clip0">
<rect width="64" height="58" fill="white"/>
</clipPath>
</defs>
</svg>
