<svg width="346" height="101" viewBox="0 0 346 101" fill="none" xmlns="http://www.w3.org/2000/svg">
<path d="M194.047 66.6364V78.8957H151.565V18.4504H193.281V30.7098H165.527V42.4583H189.365V53.7811H165.527V66.6364H194.047Z" fill="#333333"/>
<path d="M245.269 78.8957H231.647V53.7811C231.647 50.8298 231.08 48.7014 229.945 47.3961C228.866 46.0339 227.419 45.3528 225.603 45.3528C223.73 45.3528 221.829 46.0907 219.899 47.5663C217.969 49.042 216.607 50.9433 215.812 53.2703V78.8957H202.191V34.2003H214.45V41.6921C216.096 39.0813 218.423 37.0381 221.431 35.5624C224.439 34.0867 227.901 33.3489 231.818 33.3489C234.712 33.3489 237.039 33.8881 238.799 34.9665C240.615 35.9881 241.977 37.3502 242.885 39.0529C243.85 40.6988 244.474 42.515 244.758 44.5015C245.099 46.488 245.269 48.4177 245.269 50.2906V78.8957Z" fill="#333333"/>
<path d="M276.539 79.747C271.545 79.747 267.231 78.6687 263.599 76.5119C260.023 74.3552 257.27 71.5174 255.341 67.9985C253.468 64.4796 252.531 60.6486 252.531 56.5054C252.531 52.419 253.468 48.6163 255.341 45.0974C257.27 41.5786 260.023 38.7407 263.599 36.584C267.174 34.4273 271.488 33.3489 276.539 33.3489C281.647 33.3489 285.961 34.4557 289.479 36.6692C293.055 38.8259 295.723 41.6637 297.482 45.1826L284.201 49.1839C282.442 46.3461 279.859 44.9272 276.454 44.9272C273.673 44.9272 271.317 45.9772 269.388 48.0771C267.458 50.1771 266.493 52.9865 266.493 56.5054C266.493 60.0243 267.458 62.8621 269.388 65.0188C271.317 67.1756 273.673 68.2539 276.454 68.2539C278.157 68.2539 279.717 67.8566 281.136 67.062C282.555 66.2107 283.605 65.1323 284.286 63.827L297.567 67.9134C295.921 71.3755 293.282 74.2133 289.65 76.4268C286.074 78.6403 281.704 79.747 276.539 79.747Z" fill="#333333"/>
<path d="M304.001 85.6213C306.328 86.3591 308.286 86.728 309.875 86.728C311.464 86.728 312.713 86.1605 313.621 85.0254C314.586 83.8902 315.437 81.847 316.175 78.8957L299.148 34.2003H313.195L323.582 64.9337L332.436 34.2003H345.291L328.264 86.1321C327.072 89.8212 324.915 92.8009 321.794 95.0712C318.729 97.3982 315.125 98.5617 310.982 98.5617C308.598 98.5617 306.271 98.136 304.001 97.2847V85.6213Z" fill="#333333"/>
<g clip-path="url(#clip0)">
<path fill-rule="evenodd" clip-rule="evenodd" d="M55.6315 71.2601C44.3169 71.2594 35.1183 62.2 34.8924 50.9388H0.829102C0.898671 53.2597 1.53645 55.5675 2.74243 57.6479L22.9602 92.5237C25.5198 96.9391 30.2502 99.659 35.3694 99.659L55.6315 99.6591V71.2601Z" fill="#79D362"/>
<path d="M76.3732 50.9398H110.345C110.424 48.3344 109.786 45.7125 108.432 43.3772L88.2144 8.50132C85.6548 4.08595 80.9244 1.36597 75.8052 1.36597H55.5889V29.7691C55.6035 29.769 55.6182 29.769 55.6328 29.769C67.0898 29.769 76.3774 39.0571 76.3774 50.5145C76.3774 50.6566 76.376 50.7984 76.3732 50.9398Z" fill="#F9BC4A"/>
<path d="M55.6328 71.26V71.801L39.7607 99.4696H55.6328V99.659L75.8059 99.659C80.9251 99.659 85.6555 96.9391 88.2151 92.5237L108.433 57.6478C109.639 55.5675 110.277 53.2597 110.346 50.9387H76.3738C76.148 62.2003 66.948 71.26 55.6328 71.26C55.633 71.26 55.6326 71.26 55.6328 71.26Z" fill="#FF6767"/>
<path d="M35.3699 1.36597H55.5872V1.56537L71.5048 1.56537L55.6327 29.234L55.5872 29.1545V29.7691C44.1514 29.7939 34.8886 39.0725 34.8886 50.5145C34.8886 50.6565 34.89 50.7982 34.8929 50.9395H0.829652C0.751428 48.3343 1.3892 45.7124 2.74295 43.3771L22.9607 8.50131C25.5203 4.08594 30.2507 1.36597 35.3699 1.36597Z" fill="#6398FF"/>
</g>
<defs>
<clipPath id="clip0">
<rect width="109.965" height="99.3232" fill="white" transform="translate(0.650391 0.856079)"/>
</clipPath>
</defs>
</svg>
