<svg width="111" height="101" viewBox="0 0 111 101" fill="none" xmlns="http://www.w3.org/2000/svg">
<g clip-path="url(#clip0)">
<path fill-rule="evenodd" clip-rule="evenodd" d="M55.6315 71.2601C44.3169 71.2594 35.1183 62.2 34.8924 50.9388H0.829102C0.898671 53.2597 1.53645 55.5675 2.74243 57.6479L22.9602 92.5237C25.5198 96.9391 30.2502 99.659 35.3694 99.659L55.6315 99.6591V71.2601Z" fill="#79D362"/>
<path d="M76.3732 50.9398H110.345C110.424 48.3344 109.786 45.7125 108.432 43.3772L88.2144 8.50132C85.6548 4.08595 80.9244 1.36597 75.8052 1.36597H55.5889V29.7691C55.6035 29.769 55.6182 29.769 55.6328 29.769C67.0898 29.769 76.3774 39.0571 76.3774 50.5145C76.3774 50.6566 76.376 50.7984 76.3732 50.9398Z" fill="#F9BC4A"/>
<path d="M55.6328 71.26V71.801L39.7607 99.4696H55.6328V99.659L75.8059 99.659C80.9251 99.659 85.6555 96.9391 88.2151 92.5237L108.433 57.6478C109.639 55.5675 110.277 53.2597 110.346 50.9387H76.3738C76.148 62.2003 66.948 71.26 55.6328 71.26C55.633 71.26 55.6326 71.26 55.6328 71.26Z" fill="#FF6767"/>
<path d="M35.3699 1.36597H55.5872V1.56537L71.5048 1.56537L55.6327 29.234L55.5872 29.1545V29.7691C44.1514 29.7939 34.8886 39.0725 34.8886 50.5145C34.8886 50.6565 34.89 50.7982 34.8929 50.9395H0.829652C0.751428 48.3343 1.3892 45.7124 2.74295 43.3771L22.9607 8.50131C25.5203 4.08594 30.2507 1.36597 35.3699 1.36597Z" fill="#6398FF"/>
</g>
<defs>
<clipPath id="clip0">
<rect width="109.965" height="99.3232" fill="white" transform="translate(0.650391 0.856079)"/>
</clipPath>
</defs>
</svg>
