<svg width="69" height="69" viewBox="0 0 69 69" fill="none" xmlns="http://www.w3.org/2000/svg">
<path d="M60.375 46V23C60.374 21.9916 60.1078 21.0013 59.6032 20.1283C59.0986 19.2553 58.3732 18.5304 57.5 18.0262L37.375 6.52621C36.5009 6.02155 35.5093 5.75586 34.5 5.75586C33.4907 5.75586 32.4991 6.02155 31.625 6.52621L11.5 18.0262C10.6268 18.5304 9.90144 19.2553 9.39683 20.1283C8.89221 21.0013 8.62603 21.9916 8.625 23V46C8.62603 47.0083 8.89221 47.9986 9.39683 48.8716C9.90144 49.7446 10.6268 50.4695 11.5 50.9737L31.625 62.4737C32.4991 62.9784 33.4907 63.2441 34.5 63.2441C35.5093 63.2441 36.5009 62.9784 37.375 62.4737L57.5 50.9737C58.3732 50.4695 59.0986 49.7446 59.6032 48.8716C60.1078 47.9986 60.374 47.0083 60.375 46Z" stroke="black" stroke-width="7.33333" stroke-linecap="round" stroke-linejoin="round"/>
<path d="M21.5625 12.1037L34.5 19.5787L47.4375 12.1037" stroke="black" stroke-width="7.33333" stroke-linecap="round" stroke-linejoin="round"/>
<path d="M21.5625 56.8963V41.975L8.625 34.5" stroke="black" stroke-width="7.33333" stroke-linecap="round" stroke-linejoin="round"/>
<path d="M60.375 34.5L47.4375 41.975V56.8963" stroke="black" stroke-width="7.33333" stroke-linecap="round" stroke-linejoin="round"/>
<path d="M9.40131 20.0099L34.5001 34.5287L59.5988 20.0099" stroke="black" stroke-width="7.33333" stroke-linecap="round" stroke-linejoin="round"/>
<path d="M34.5 63.48V34.5" stroke="black" stroke-width="7.33333" stroke-linecap="round" stroke-linejoin="round"/>
</svg>
