<svg width="638" height="545" viewBox="0 0 638 545" fill="none" xmlns="http://www.w3.org/2000/svg">
<g clip-path="url(#clip0)">
<g filter="url(#filter0_d)">
<rect x="273.52" y="87" width="356.563" height="270.315" rx="16" transform="rotate(14.9407 273.52 87)" fill="white"/>
<path d="M269.394 102.459C271.673 93.9213 280.441 88.8469 288.979 91.1251L292.828 92.1523L223.136 353.329L219.286 352.302C210.749 350.023 205.674 341.255 207.952 332.717L269.394 102.459Z" fill="#565860"/>
<path d="M309.276 145.204C307.937 144.847 306.795 144.309 305.85 143.591C304.905 142.873 304.224 142.002 303.808 140.979C303.41 139.959 303.353 138.845 303.638 137.636L308.386 138.903C308.275 139.6 308.37 140.184 308.673 140.656C308.98 141.11 309.455 141.424 310.099 141.595C310.76 141.772 311.321 141.763 311.783 141.569C312.249 141.359 312.554 140.983 312.698 140.444C312.818 139.992 312.761 139.576 312.527 139.197C312.311 138.823 312.002 138.48 311.6 138.168C311.217 137.86 310.649 137.476 309.896 137.014C308.811 136.333 307.943 135.711 307.293 135.146C306.642 134.581 306.143 133.87 305.794 133.013C305.445 132.156 305.424 131.154 305.73 130.006C306.185 128.302 307.157 127.136 308.647 126.509C310.142 125.865 311.881 125.807 313.863 126.336C315.881 126.874 317.377 127.795 318.352 129.099C319.331 130.385 319.635 131.9 319.262 133.645L314.436 132.357C314.559 131.757 314.465 131.238 314.153 130.801C313.846 130.346 313.379 130.035 312.753 129.868C312.214 129.724 311.74 129.756 311.33 129.964C310.926 130.154 310.651 130.518 310.508 131.057C310.35 131.649 310.505 132.184 310.973 132.663C311.442 133.142 312.216 133.73 313.297 134.428C314.373 135.144 315.227 135.782 315.86 136.342C316.51 136.907 317.012 137.609 317.366 138.448C317.719 139.288 317.75 140.256 317.458 141.351C317.179 142.395 316.657 143.271 315.89 143.979C315.141 144.692 314.195 145.166 313.052 145.401C311.908 145.636 310.65 145.571 309.276 145.204ZM327.871 145.918L326.861 149.701L324.592 149.095C322.974 148.664 321.818 147.936 321.122 146.912C320.431 145.871 320.325 144.454 320.803 142.663L322.348 136.872L320.574 136.398L321.563 132.694L323.337 133.167L324.283 129.619L328.744 130.81L327.798 134.358L330.719 135.137L329.731 138.842L326.809 138.062L325.25 143.906C325.134 144.34 325.155 144.681 325.312 144.928C325.47 145.175 325.792 145.364 326.279 145.494L327.871 145.918ZM345.073 146.512C344.961 146.93 344.819 147.358 344.646 147.796L334.551 145.102C334.379 146.025 334.48 146.797 334.855 147.419C335.251 148.027 335.823 148.432 336.571 148.631C337.684 148.928 338.583 148.665 339.269 147.842L344.017 149.109C343.518 150 342.845 150.743 341.997 151.337C341.167 151.935 340.215 152.324 339.143 152.503C338.07 152.683 336.943 152.615 335.76 152.299C334.334 151.918 333.145 151.275 332.195 150.37C331.244 149.464 330.607 148.362 330.282 147.065C329.958 145.767 329.997 144.362 330.401 142.849C330.805 141.336 331.462 140.095 332.372 139.127C333.3 138.164 334.402 137.526 335.677 137.215C336.953 136.903 338.312 136.94 339.756 137.325C341.164 137.701 342.338 138.331 343.275 139.214C344.213 140.098 344.84 141.169 345.157 142.427C345.491 143.69 345.462 145.052 345.073 146.512ZM340.821 144.12C341.025 143.355 340.926 142.677 340.525 142.085C340.124 141.494 339.532 141.094 338.75 140.885C338.002 140.685 337.309 140.733 336.671 141.029C336.051 141.329 335.573 141.863 335.238 142.631L340.821 144.12ZM353.083 152.227L359.01 142.686L363.758 143.953L354.708 157.132L349.204 155.663L347.923 139.728L352.697 141.002L353.083 152.227ZM377.478 155.159C377.366 155.577 377.224 156.005 377.052 156.443L366.956 153.749C366.784 154.672 366.885 155.444 367.26 156.066C367.656 156.674 368.228 157.079 368.976 157.278C370.089 157.575 370.988 157.312 371.674 156.489L376.422 157.756C375.923 158.647 375.25 159.39 374.402 159.984C373.572 160.582 372.62 160.971 371.548 161.15C370.475 161.33 369.348 161.262 368.165 160.946C366.739 160.565 365.551 159.922 364.6 159.017C363.649 158.111 363.012 157.009 362.687 155.712C362.363 154.414 362.403 153.009 362.806 151.496C363.21 149.983 363.867 148.742 364.778 147.774C365.705 146.811 366.807 146.173 368.082 145.862C369.358 145.55 370.717 145.587 372.161 145.972C373.57 146.348 374.743 146.978 375.681 147.861C376.619 148.745 377.246 149.816 377.562 151.074C377.896 152.337 377.868 153.699 377.478 155.159ZM373.226 152.767C373.43 152.002 373.332 151.324 372.931 150.732C372.529 150.141 371.938 149.741 371.155 149.532C370.407 149.332 369.714 149.38 369.077 149.676C368.456 149.976 367.978 150.51 367.643 151.278L373.226 152.767ZM399.72 149.525L396.392 161.995C395.877 163.925 394.933 165.266 393.558 166.017C392.202 166.773 390.602 166.905 388.758 166.413C386.828 165.898 385.426 164.937 384.553 163.531C383.68 162.124 383.513 160.412 384.051 158.395L388.486 159.578C388.282 160.343 388.283 160.968 388.489 161.451C388.7 161.917 389.101 162.229 389.693 162.387C390.232 162.531 390.696 162.468 391.084 162.199C391.473 161.93 391.755 161.466 391.931 160.805L395.259 148.335L399.72 149.525ZM405.007 170.777C403.581 170.396 402.375 169.749 401.39 168.834C400.422 167.923 399.758 166.815 399.399 165.508C399.057 164.206 399.088 162.798 399.492 161.285C399.891 159.789 400.571 158.564 401.534 157.61C402.501 156.639 403.64 156.002 404.95 155.7C406.26 155.397 407.629 155.436 409.055 155.817C410.481 156.197 411.687 156.845 412.672 157.76C413.657 158.675 414.327 159.795 414.682 161.119C415.041 162.426 415.021 163.827 414.622 165.322C414.223 166.818 413.531 168.049 412.547 169.016C411.584 169.97 410.439 170.596 409.111 170.894C407.801 171.196 406.433 171.157 405.007 170.777ZM406.037 166.916C406.889 167.143 407.695 167.023 408.453 166.555C409.229 166.091 409.772 165.276 410.083 164.111C410.394 162.946 410.337 161.971 409.913 161.188C409.506 160.408 408.877 159.905 408.024 159.678C407.155 159.446 406.35 159.566 405.609 160.039C404.872 160.495 404.346 161.314 404.031 162.496C403.72 163.661 403.759 164.631 404.148 165.406C404.555 166.185 405.185 166.689 406.037 166.916ZM422.842 161.927C423.44 161.36 424.186 160.972 425.08 160.764C425.974 160.555 426.926 160.585 427.934 160.855C429.134 161.175 430.14 161.769 430.952 162.638C431.763 163.506 432.296 164.58 432.551 165.859C432.824 167.143 432.76 168.532 432.361 170.028C431.962 171.524 431.322 172.769 430.442 173.764C429.584 174.745 428.584 175.42 427.443 175.786C426.307 176.135 425.139 176.149 423.939 175.829C422.913 175.555 422.07 175.116 421.412 174.512C420.758 173.89 420.304 173.182 420.05 172.388L419.507 174.423L415.047 173.232L420.198 153.928L424.659 155.118L422.842 161.927ZM427.822 168.817C428.119 167.704 428.038 166.751 427.579 165.957C427.142 165.151 426.471 164.628 425.567 164.387C424.68 164.15 423.837 164.27 423.04 164.746C422.259 165.227 421.721 166.024 421.424 167.137C421.127 168.25 421.197 169.21 421.634 170.016C422.088 170.826 422.759 171.35 423.646 171.587C424.533 171.823 425.375 171.703 426.173 171.227C426.975 170.733 427.525 169.93 427.822 168.817ZM438.618 179.746C437.349 179.407 436.276 178.888 435.401 178.189C434.526 177.489 433.901 176.689 433.527 175.788C433.157 174.87 433.062 173.932 433.244 172.974L437.652 174.151C437.57 174.669 437.696 175.14 438.029 175.565C438.363 175.989 438.835 176.282 439.443 176.445C440 176.593 440.454 176.603 440.805 176.473C441.178 176.33 441.412 176.085 441.504 175.737C441.616 175.32 441.48 174.958 441.096 174.65C440.717 174.325 440.073 173.911 439.164 173.408C438.185 172.886 437.383 172.402 436.757 171.955C436.135 171.492 435.649 170.905 435.298 170.197C434.951 169.471 434.91 168.612 435.175 167.621C435.398 166.786 435.826 166.09 436.459 165.532C437.114 164.962 437.938 164.595 438.932 164.432C439.943 164.273 441.066 164.359 442.301 164.688C444.127 165.175 445.441 166.01 446.243 167.193C447.063 168.381 447.351 169.743 447.109 171.281L442.987 170.181C443.052 169.658 442.933 169.197 442.629 168.8C442.343 168.407 441.895 168.129 441.286 167.966C440.765 167.827 440.337 167.825 440.003 167.959C439.674 168.076 439.463 168.309 439.37 168.657C439.258 169.074 439.392 169.445 439.771 169.77C440.168 170.099 440.808 170.493 441.691 170.953C442.695 171.519 443.499 172.031 444.103 172.491C444.712 172.932 445.187 173.525 445.529 174.268C445.893 174.999 445.949 175.871 445.697 176.884C445.47 177.736 445.022 178.437 444.354 178.985C443.709 179.52 442.882 179.859 441.876 180C440.887 180.146 439.801 180.061 438.618 179.746Z" fill="#222222"/>
<path d="M298.544 170.016L301.495 170.803L301.187 171.959L296.803 170.789L299.133 162.06L300.565 162.442L298.544 170.016ZM302.839 168.659C303.024 167.964 303.331 167.387 303.759 166.927C304.195 166.469 304.699 166.16 305.271 165.998C305.854 165.831 306.447 165.828 307.05 165.989C307.594 166.134 308.038 166.369 308.382 166.694C308.736 167.013 308.993 167.364 309.15 167.747L309.419 166.742L310.863 167.127L309.016 174.048L307.572 173.663L307.847 172.633C307.517 172.894 307.113 173.078 306.637 173.184C306.16 173.29 305.653 173.272 305.118 173.129C304.523 172.97 304.019 172.674 303.605 172.241C303.194 171.799 302.914 171.267 302.766 170.645C302.629 170.016 302.653 169.354 302.839 168.659ZM308.497 170.196C308.624 169.719 308.634 169.277 308.527 168.872C308.429 168.469 308.245 168.133 307.976 167.864C307.707 167.595 307.388 167.411 307.019 167.313C306.651 167.214 306.283 167.215 305.916 167.314C305.551 167.405 305.221 167.599 304.926 167.898C304.642 168.189 304.436 168.574 304.308 169.051C304.181 169.529 304.166 169.973 304.262 170.385C304.367 170.798 304.553 171.144 304.82 171.421C305.097 171.693 305.416 171.876 305.776 171.973C306.144 172.071 306.512 172.07 306.88 171.971C307.247 171.872 307.574 171.672 307.86 171.372C308.157 171.065 308.37 170.673 308.497 170.196ZM313.379 175.333C312.835 175.188 312.371 174.961 311.986 174.652C311.613 174.337 311.345 173.979 311.184 173.577C311.024 173.167 310.992 172.75 311.087 172.327L312.569 172.722C312.516 173.022 312.588 173.306 312.786 173.574C312.994 173.836 313.29 174.018 313.676 174.121C314.078 174.228 314.408 174.235 314.665 174.143C314.934 174.044 315.101 173.873 315.165 173.63C315.235 173.371 315.161 173.145 314.943 172.952C314.733 172.762 314.381 172.52 313.885 172.226C313.404 171.945 313.018 171.694 312.727 171.473C312.436 171.252 312.206 170.971 312.037 170.629C311.877 170.291 311.857 169.895 311.977 169.443C312.076 169.074 312.274 168.768 312.572 168.525C312.872 168.273 313.247 168.113 313.696 168.045C314.153 167.978 314.645 168.015 315.173 168.156C315.96 168.366 316.539 168.736 316.909 169.265C317.289 169.788 317.405 170.398 317.255 171.093L315.823 170.711C315.881 170.395 315.821 170.114 315.644 169.87C315.467 169.625 315.186 169.451 314.801 169.349C314.424 169.248 314.116 169.242 313.877 169.331C313.638 169.42 313.488 169.581 313.425 169.816C313.376 170 313.402 170.173 313.502 170.334C313.603 170.495 313.739 170.639 313.911 170.766C314.086 170.885 314.347 171.049 314.695 171.258C315.162 171.526 315.535 171.774 315.816 172.001C316.106 172.222 316.333 172.498 316.496 172.828C316.659 173.159 316.686 173.547 316.576 173.993C316.471 174.387 316.268 174.709 315.967 174.961C315.667 175.213 315.292 175.373 314.844 175.442C314.403 175.512 313.915 175.476 313.379 175.333ZM320.812 171.033L319.79 174.864C319.721 175.124 319.729 175.328 319.815 175.477C319.912 175.619 320.106 175.729 320.399 175.807L321.279 176.042L320.96 177.235L319.83 176.934C319.185 176.762 318.731 176.479 318.468 176.086C318.205 175.693 318.165 175.157 318.346 174.479L319.368 170.648L318.551 170.43L318.863 169.262L319.679 169.48L320.139 167.759L321.583 168.144L321.124 169.865L322.807 170.314L322.495 171.483L320.812 171.033ZM329.292 170.107L327.807 175.672C327.63 176.333 327.669 176.877 327.923 177.304C328.185 177.732 328.626 178.03 329.246 178.195C329.874 178.362 330.404 178.325 330.837 178.081C331.278 177.84 331.587 177.389 331.763 176.727L333.248 171.163L334.68 171.545L333.202 177.084C333.012 177.796 332.696 178.358 332.255 178.769C331.813 179.18 331.3 179.438 330.716 179.542C330.132 179.647 329.526 179.615 328.898 179.448C328.27 179.28 327.729 179.005 327.275 178.624C326.829 178.245 326.521 177.768 326.351 177.194C326.181 176.619 326.192 175.976 326.382 175.264L327.86 169.725L329.292 170.107ZM337.222 175.251C337.55 174.997 337.952 174.818 338.429 174.712C338.906 174.606 339.408 174.623 339.935 174.764C340.538 174.925 341.047 175.222 341.46 175.655C341.884 176.082 342.167 176.602 342.309 177.214C342.451 177.826 342.429 178.479 342.243 179.174C342.058 179.869 341.749 180.455 341.317 180.932C340.887 181.4 340.379 181.722 339.794 181.898C339.22 182.067 338.631 182.072 338.028 181.911C337.501 181.77 337.06 181.54 336.705 181.221C336.353 180.894 336.09 180.537 335.915 180.149L334.769 184.445L333.337 184.063L336.062 173.851L337.494 174.233L337.222 175.251ZM340.786 178.785C340.914 178.308 340.923 177.871 340.813 177.474C340.715 177.071 340.525 176.738 340.246 176.475C339.977 176.206 339.658 176.022 339.29 175.924C338.93 175.827 338.562 175.828 338.186 175.925C337.819 176.024 337.487 176.223 337.193 176.521C336.906 176.821 336.699 177.21 336.572 177.687C336.445 178.165 336.429 178.609 336.526 179.021C336.633 179.426 336.821 179.763 337.09 180.032C337.367 180.304 337.686 180.487 338.046 180.583C338.415 180.682 338.782 180.681 339.15 180.582C339.528 180.477 339.861 180.269 340.15 179.961C340.447 179.654 340.659 179.262 340.786 178.785ZM343.182 179.424C343.368 178.729 343.674 178.152 344.102 177.692C344.538 177.234 345.042 176.925 345.614 176.764C346.197 176.596 346.794 176.594 347.406 176.757C347.858 176.878 348.275 177.097 348.657 177.414C349.049 177.725 349.331 178.078 349.504 178.474L350.395 175.133L351.84 175.519L349.36 184.813L347.915 184.428L348.193 183.385C347.869 183.658 347.469 183.847 346.992 183.953C346.524 184.061 346.022 184.044 345.486 183.901C344.883 183.74 344.371 183.442 343.949 183.006C343.537 182.564 343.258 182.032 343.11 181.41C342.973 180.781 342.997 180.119 343.182 179.424ZM348.84 180.961C348.968 180.484 348.978 180.043 348.871 179.637C348.772 179.234 348.588 178.898 348.319 178.629C348.05 178.36 347.731 178.176 347.363 178.078C346.994 177.979 346.626 177.98 346.259 178.079C345.894 178.17 345.564 178.365 345.269 178.663C344.985 178.955 344.779 179.339 344.652 179.817C344.524 180.294 344.509 180.738 344.605 181.15C344.71 181.563 344.896 181.909 345.163 182.187C345.44 182.458 345.759 182.642 346.119 182.738C346.488 182.836 346.856 182.836 347.223 182.736C347.59 182.637 347.917 182.437 348.204 182.137C348.501 181.83 348.713 181.438 348.84 180.961ZM351.695 181.696C351.88 181.001 352.187 180.423 352.615 179.964C353.051 179.506 353.555 179.196 354.127 179.035C354.71 178.868 355.303 178.864 355.906 179.025C356.45 179.171 356.894 179.406 357.238 179.731C357.592 180.049 357.849 180.4 358.006 180.783L358.275 179.779L359.719 180.164L357.872 187.085L356.428 186.699L356.703 185.669C356.373 185.931 355.969 186.115 355.493 186.221C355.016 186.327 354.509 186.309 353.973 186.166C353.379 186.007 352.875 185.711 352.461 185.278C352.05 184.836 351.77 184.304 351.622 183.681C351.485 183.053 351.509 182.391 351.695 181.696ZM357.353 183.233C357.48 182.755 357.49 182.314 357.383 181.909C357.284 181.506 357.101 181.17 356.832 180.9C356.563 180.631 356.244 180.448 355.875 180.349C355.507 180.251 355.139 180.251 354.772 180.351C354.407 180.442 354.077 180.636 353.782 180.934C353.498 181.226 353.292 181.611 353.164 182.088C353.037 182.565 353.022 183.01 353.118 183.421C353.223 183.835 353.409 184.181 353.676 184.458C353.953 184.729 354.272 184.913 354.632 185.009C355 185.108 355.368 185.107 355.736 185.008C356.103 184.908 356.43 184.709 356.716 184.408C357.013 184.102 357.226 183.71 357.353 183.233ZM362.959 182.28L361.936 186.111C361.867 186.37 361.875 186.574 361.961 186.723C362.058 186.865 362.253 186.976 362.546 187.054L363.425 187.288L363.107 188.482L361.976 188.18C361.331 188.008 360.878 187.725 360.615 187.332C360.352 186.939 360.311 186.404 360.492 185.725L361.514 181.894L360.698 181.676L361.009 180.508L361.826 180.726L362.285 179.005L363.73 179.391L363.27 181.112L364.953 181.561L364.642 182.729L362.959 182.28ZM371.738 186.896C371.669 187.156 371.59 187.386 371.5 187.586L366.212 186.175C366.107 186.739 366.193 187.238 366.472 187.671C366.751 188.104 367.159 188.392 367.695 188.535C368.465 188.741 369.096 188.564 369.586 188.004L371.131 188.416C370.752 188.997 370.231 189.418 369.569 189.681C368.917 189.938 368.185 189.958 367.373 189.741C366.712 189.565 366.156 189.259 365.707 188.826C365.268 188.386 364.97 187.857 364.811 187.241C364.663 186.619 364.684 185.951 364.874 185.24C365.064 184.528 365.373 183.942 365.801 183.482C366.239 183.016 366.757 182.706 367.354 182.551C367.96 182.399 368.602 182.413 369.28 182.594C369.933 182.768 370.477 183.066 370.912 183.487C371.347 183.908 371.637 184.416 371.784 185.011C371.932 185.598 371.917 186.226 371.738 186.896ZM370.364 186.045C370.496 185.516 370.421 185.042 370.137 184.626C369.854 184.209 369.44 183.928 368.896 183.783C368.402 183.651 367.936 183.698 367.5 183.922C367.065 184.138 366.743 184.505 366.533 185.023L370.364 186.045ZM372.633 187.283C372.819 186.588 373.125 186.011 373.553 185.551C373.989 185.093 374.493 184.784 375.065 184.622C375.648 184.455 376.245 184.453 376.857 184.616C377.309 184.737 377.726 184.955 378.108 185.273C378.5 185.584 378.782 185.937 378.955 186.333L379.846 182.992L381.291 183.377L378.811 192.672L377.366 192.287L377.644 191.244C377.32 191.516 376.92 191.706 376.443 191.812C375.975 191.92 375.473 191.902 374.937 191.759C374.334 191.599 373.822 191.3 373.4 190.865C372.988 190.423 372.709 189.891 372.561 189.269C372.424 188.64 372.448 187.978 372.633 187.283ZM378.291 188.82C378.419 188.343 378.429 187.901 378.322 187.496C378.223 187.093 378.039 186.757 377.77 186.488C377.501 186.218 377.182 186.035 376.814 185.936C376.445 185.838 376.077 185.839 375.71 185.938C375.345 186.029 375.015 186.223 374.72 186.521C374.436 186.813 374.23 187.198 374.103 187.675C373.975 188.153 373.96 188.597 374.056 189.008C374.161 189.422 374.347 189.768 374.614 190.045C374.891 190.317 375.21 190.5 375.57 190.596C375.939 190.695 376.306 190.694 376.674 190.595C377.041 190.496 377.368 190.296 377.655 189.995C377.952 189.689 378.164 189.297 378.291 188.82ZM381.246 193.416C380.986 193.347 380.792 193.201 380.663 192.978C380.534 192.755 380.504 192.514 380.573 192.254C380.643 191.995 380.789 191.801 381.011 191.672C381.234 191.543 381.475 191.513 381.735 191.582C381.986 191.649 382.176 191.794 382.305 192.017C382.434 192.24 382.464 192.481 382.395 192.74C382.325 193 382.179 193.194 381.957 193.323C381.734 193.452 381.497 193.483 381.246 193.416ZM382.653 188.141C382.394 188.071 382.199 187.925 382.071 187.702C381.942 187.48 381.912 187.239 381.981 186.979C382.05 186.719 382.196 186.525 382.419 186.396C382.642 186.267 382.883 186.237 383.143 186.307C383.394 186.374 383.584 186.519 383.713 186.741C383.842 186.964 383.872 187.205 383.802 187.465C383.733 187.725 383.587 187.919 383.364 188.048C383.142 188.177 382.905 188.208 382.653 188.141ZM388.155 193.08C389.145 192.6 389.929 192.199 390.508 191.878C391.097 191.551 391.612 191.186 392.051 190.783C392.491 190.38 392.775 189.935 392.905 189.45C393.039 188.947 393.022 188.521 392.856 188.172C392.697 187.825 392.362 187.583 391.852 187.447C391.358 187.315 390.93 187.371 390.569 187.616C390.218 187.854 389.964 188.235 389.807 188.758L388.425 188.389C388.705 187.441 389.184 186.789 389.862 186.431C390.551 186.068 391.318 185.999 392.164 186.225C393.077 186.468 393.722 186.91 394.098 187.548C394.484 188.189 394.564 188.928 394.341 189.766C394.18 190.369 393.87 190.909 393.41 191.388C392.961 191.86 392.464 192.261 391.919 192.591C391.384 192.914 390.713 193.278 389.905 193.682L389.206 194.033L393.188 195.096L392.869 196.289L386.765 194.66L387.043 193.617L388.155 193.08ZM395.347 192.053C395.734 190.604 396.278 189.538 396.981 188.856C397.694 188.167 398.649 187.982 399.846 188.302C401.044 188.621 401.776 189.256 402.043 190.206C402.32 191.15 402.265 192.347 401.879 193.795C401.488 195.261 400.935 196.342 400.219 197.039C399.515 197.73 398.564 197.916 397.366 197.596C396.169 197.277 395.433 196.641 395.157 195.688C394.893 194.73 394.956 193.518 395.347 192.053ZM400.472 193.42C400.653 192.742 400.76 192.156 400.793 191.662C400.834 191.171 400.76 190.743 400.57 190.379C400.383 190.006 400.025 189.749 399.498 189.608C398.97 189.467 398.532 189.512 398.184 189.742C397.838 189.963 397.556 190.296 397.339 190.741C397.13 191.187 396.935 191.75 396.754 192.428C396.566 193.131 396.451 193.733 396.407 194.232C396.363 194.732 396.437 195.164 396.626 195.529C396.824 195.896 397.187 196.149 397.715 196.29C398.242 196.431 398.679 196.391 399.025 196.169C399.38 195.95 399.663 195.612 399.874 195.158C400.085 194.703 400.284 194.123 400.472 193.42ZM409.016 195.216L408.694 196.421L403.532 195.044L403.854 193.838L409.016 195.216ZM410.741 196.16C411.128 194.712 411.672 193.646 412.375 192.963C413.088 192.275 414.043 192.09 415.24 192.409C416.438 192.729 417.17 193.364 417.437 194.314C417.714 195.258 417.659 196.454 417.273 197.903C416.882 199.368 416.329 200.45 415.613 201.147C414.909 201.838 413.958 202.024 412.76 201.704C411.563 201.385 410.827 200.749 410.551 199.796C410.287 198.838 410.35 197.626 410.741 196.16ZM415.866 197.528C416.047 196.849 416.154 196.264 416.187 195.77C416.228 195.279 416.154 194.851 415.964 194.486C415.777 194.113 415.419 193.856 414.892 193.716C414.364 193.575 413.926 193.62 413.578 193.849C413.232 194.071 412.95 194.404 412.733 194.848C412.524 195.295 412.329 195.857 412.148 196.536C411.96 197.239 411.845 197.841 411.801 198.34C411.757 198.84 411.831 199.272 412.02 199.637C412.218 200.003 412.581 200.257 413.109 200.398C413.636 200.539 414.073 200.498 414.419 200.277C414.774 200.057 415.057 199.72 415.268 199.265C415.479 198.81 415.678 198.231 415.866 197.528ZM419.441 195.104L419.789 193.798L422.402 194.495L419.959 203.652L418.514 203.266L420.609 195.416L419.441 195.104ZM428.801 200.495L428.48 201.701L423.317 200.323L423.639 199.117L428.801 200.495ZM430.584 204.402C431.573 203.921 432.357 203.52 432.936 203.2C433.526 202.872 434.04 202.507 434.48 202.104C434.919 201.701 435.204 201.257 435.333 200.771C435.467 200.269 435.451 199.843 435.284 199.494C435.126 199.146 434.791 198.904 434.28 198.768C433.786 198.636 433.359 198.693 432.997 198.937C432.647 199.175 432.393 199.556 432.235 200.079L430.853 199.711C431.133 198.763 431.612 198.11 432.291 197.753C432.98 197.39 433.747 197.321 434.593 197.546C435.505 197.79 436.15 198.231 436.527 198.87C436.912 199.511 436.993 200.25 436.769 201.087C436.609 201.69 436.298 202.231 435.839 202.709C435.39 203.181 434.893 203.583 434.347 203.912C433.812 204.236 433.141 204.6 432.334 205.003L431.635 205.355L435.616 206.417L435.298 207.61L429.193 205.982L429.472 204.939L430.584 204.402ZM437.776 203.374C438.162 201.925 438.707 200.86 439.409 200.177C440.122 199.488 441.078 199.304 442.275 199.623C443.472 199.943 444.204 200.578 444.471 201.528C444.748 202.472 444.694 203.668 444.307 205.117C443.916 206.582 443.363 207.664 442.648 208.361C441.943 209.052 440.992 209.238 439.795 208.918C438.597 208.599 437.861 207.963 437.586 207.01C437.322 206.052 437.385 204.84 437.776 203.374ZM442.901 204.742C443.081 204.063 443.188 203.477 443.222 202.984C443.263 202.493 443.189 202.065 442.999 201.7C442.811 201.327 442.454 201.07 441.926 200.93C441.399 200.789 440.961 200.833 440.612 201.063C440.266 201.285 439.985 201.618 439.767 202.062C439.559 202.509 439.364 203.071 439.183 203.75C438.995 204.453 438.879 205.054 438.836 205.554C438.792 206.054 438.865 206.486 439.055 206.85C439.253 207.217 439.616 207.471 440.143 207.612C440.671 207.753 441.108 207.712 441.454 207.491C441.808 207.271 442.091 206.934 442.302 206.479C442.513 206.024 442.713 205.445 442.901 204.742ZM445.88 208.483C446.869 208.003 447.653 207.602 448.232 207.281C448.822 206.954 449.336 206.589 449.776 206.186C450.215 205.783 450.5 205.339 450.629 204.853C450.763 204.351 450.747 203.925 450.58 203.575C450.422 203.228 450.087 202.986 449.576 202.85C449.082 202.718 448.654 202.774 448.293 203.019C447.943 203.257 447.688 203.638 447.531 204.161L446.149 203.792C446.429 202.844 446.908 202.192 447.587 201.834C448.276 201.471 449.043 201.402 449.889 201.628C450.801 201.872 451.446 202.313 451.823 202.951C452.208 203.592 452.289 204.332 452.065 205.169C451.904 205.772 451.594 206.312 451.135 206.791C450.686 207.263 450.189 207.664 449.643 207.994C449.108 208.318 448.437 208.681 447.63 209.085L446.93 209.436L450.912 210.499L450.594 211.692L444.489 210.063L444.768 209.021L445.88 208.483ZM453.725 204.253L454.073 202.946L456.686 203.644L454.242 212.8L452.798 212.415L454.893 204.564L453.725 204.253Z" fill="#9D9D9D"/>
<rect x="259.324" y="307.466" width="112.544" height="33.6579" rx="9" transform="rotate(14.9407 259.324 307.466)" fill="#4B5EB2"/>
<path d="M273.988 327.864C274.256 326.859 274.712 326.023 275.356 325.356C276.002 324.68 276.769 324.228 277.658 323.999C278.559 323.764 279.503 323.777 280.488 324.04C281.696 324.362 282.645 324.957 283.335 325.824C284.024 326.691 284.367 327.714 284.363 328.893L281.638 328.166C281.549 327.687 281.346 327.286 281.028 326.963C280.72 326.643 280.33 326.42 279.856 326.293C279.093 326.09 278.404 326.19 277.788 326.595C277.173 327.001 276.747 327.648 276.51 328.536C276.272 329.425 276.32 330.199 276.651 330.856C276.983 331.514 277.53 331.945 278.294 332.148C278.767 332.275 279.217 332.276 279.644 332.152C280.08 332.03 280.456 331.784 280.772 331.413L283.497 332.14C282.913 333.164 282.106 333.88 281.076 334.288C280.049 334.687 278.931 334.725 277.723 334.403C276.738 334.14 275.912 333.686 275.245 333.043C274.591 332.392 274.151 331.617 273.925 330.719C273.699 329.82 273.72 328.868 273.988 327.864ZM287.737 337.121C286.944 336.91 286.275 336.55 285.727 336.042C285.189 335.536 284.821 334.92 284.621 334.194C284.431 333.471 284.448 332.689 284.673 331.848C284.894 331.017 285.273 330.337 285.807 329.806C286.345 329.267 286.977 328.913 287.705 328.745C288.433 328.577 289.193 328.599 289.985 328.81C290.778 329.021 291.448 329.381 291.995 329.89C292.543 330.398 292.915 331.02 293.112 331.756C293.311 332.482 293.3 333.26 293.079 334.091C292.857 334.922 292.472 335.606 291.925 336.143C291.391 336.673 290.755 337.021 290.017 337.186C289.289 337.354 288.529 337.333 287.737 337.121ZM288.309 334.976C288.782 335.103 289.23 335.036 289.651 334.775C290.082 334.518 290.384 334.065 290.557 333.418C290.729 332.771 290.698 332.229 290.462 331.794C290.236 331.361 289.887 331.081 289.413 330.955C288.93 330.826 288.483 330.893 288.071 331.156C287.662 331.409 287.37 331.864 287.194 332.521C287.022 333.168 287.043 333.707 287.26 334.137C287.486 334.57 287.836 334.85 288.309 334.976ZM300.423 331.626C301.37 331.879 302.041 332.389 302.436 333.157C302.844 333.918 302.905 334.834 302.619 335.907L301.358 340.632L298.894 339.974L300.066 335.583C300.21 335.042 300.182 334.584 299.982 334.21C299.782 333.836 299.445 333.585 298.971 333.459C298.498 333.333 298.081 333.382 297.721 333.607C297.361 333.831 297.109 334.214 296.964 334.755L295.793 339.147L293.314 338.485L295.472 330.398L297.951 331.06L297.664 332.132C298.011 331.842 298.424 331.652 298.903 331.562C299.385 331.463 299.892 331.484 300.423 331.626ZM308.148 340.192L307.587 342.294L306.326 341.957C305.428 341.718 304.785 341.313 304.399 340.745C304.015 340.166 303.956 339.379 304.222 338.384L305.08 335.167L304.095 334.904L304.644 332.846L305.629 333.109L306.155 331.138L308.634 331.799L308.108 333.77L309.731 334.203L309.182 336.261L307.558 335.828L306.692 339.074C306.628 339.316 306.639 339.505 306.727 339.642C306.814 339.78 306.993 339.884 307.264 339.957L308.148 340.192ZM312.596 334.067C312.162 333.951 311.838 333.73 311.624 333.404C311.424 333.071 311.373 332.716 311.474 332.339C311.577 331.953 311.797 331.67 312.135 331.491C312.485 331.305 312.877 331.27 313.312 331.386C313.737 331.499 314.05 331.723 314.251 332.056C314.464 332.382 314.519 332.738 314.416 333.124C314.315 333.501 314.09 333.783 313.74 333.969C313.403 334.148 313.022 334.181 312.596 334.067ZM313.604 335.237L311.446 343.324L308.968 342.662L311.126 334.575L313.604 335.237ZM320.351 336.944C321.298 337.196 321.969 337.707 322.364 338.475C322.772 339.235 322.833 340.152 322.546 341.224L321.286 345.949L318.822 345.292L319.994 340.9C320.138 340.359 320.11 339.902 319.91 339.527C319.709 339.153 319.373 338.903 318.899 338.776C318.426 338.65 318.009 338.699 317.649 338.924C317.289 339.149 317.036 339.532 316.892 340.073L315.72 344.464L313.242 343.803L315.4 335.716L317.878 336.377L317.592 337.45C317.939 337.159 318.352 336.969 318.831 336.88C319.313 336.781 319.819 336.802 320.351 336.944ZM333.151 340.453L330.993 348.54L328.515 347.878L328.809 346.777C328.462 347.067 328.042 347.266 327.548 347.372C327.066 347.471 326.564 347.451 326.043 347.312C325.424 347.147 324.914 346.866 324.513 346.469C324.114 346.062 323.854 345.563 323.733 344.972C323.611 344.381 323.644 343.732 323.833 343.027L325.093 338.302L327.557 338.96L326.385 343.351C326.241 343.892 326.269 344.35 326.469 344.724C326.669 345.098 327.006 345.349 327.48 345.475C327.963 345.604 328.384 345.556 328.744 345.331C329.105 345.107 329.357 344.724 329.501 344.183L330.673 339.791L333.151 340.453ZM341.511 346.875C341.449 347.107 341.37 347.344 341.274 347.588L335.665 346.091C335.57 346.604 335.626 347.033 335.834 347.378C336.054 347.716 336.372 347.941 336.787 348.052C337.406 348.217 337.905 348.071 338.286 347.613L340.924 348.317C340.647 348.813 340.273 349.225 339.802 349.555C339.341 349.887 338.812 350.103 338.216 350.203C337.62 350.303 336.994 350.265 336.337 350.09C335.545 349.878 334.884 349.521 334.356 349.018C333.828 348.515 333.474 347.903 333.294 347.182C333.113 346.461 333.135 345.68 333.36 344.84C333.584 343.999 333.949 343.31 334.455 342.772C334.97 342.237 335.582 341.883 336.291 341.709C336.999 341.536 337.755 341.557 338.557 341.771C339.339 341.98 339.991 342.329 340.512 342.82C341.033 343.311 341.382 343.906 341.557 344.605C341.743 345.307 341.727 346.063 341.511 346.875ZM339.148 345.546C339.262 345.121 339.207 344.744 338.984 344.415C338.761 344.087 338.433 343.865 337.998 343.748C337.582 343.638 337.197 343.664 336.843 343.828C336.498 343.995 336.233 344.292 336.047 344.718L339.148 345.546Z" fill="white"/>
<circle cx="521.701" cy="405.616" r="2.62952" transform="rotate(14.9407 521.701 405.616)" fill="#222222"/>
<circle cx="519.532" cy="413.746" r="2.62952" transform="rotate(14.9407 519.532 413.746)" fill="#222222"/>
<circle cx="517.363" cy="421.877" r="2.62952" transform="rotate(14.9407 517.363 421.877)" fill="#222222"/>
</g>
<g filter="url(#filter1_d)">
<rect x="59" y="189.496" width="356.563" height="270.315" rx="16" transform="rotate(-2.10238 59 189.496)" fill="white"/>
<path d="M59.587 205.485C59.2628 196.655 66.1586 189.233 74.9892 188.909L78.9709 188.763L88.8875 458.896L84.9058 459.042C76.0752 459.366 68.6538 452.47 68.3296 443.64L59.587 205.485Z" fill="#32407C"/>
<path d="M115.019 215.333L115.155 219.03L107.438 219.313L107.585 223.306L113.359 223.094L113.49 226.683L107.716 226.895L107.998 234.558L103.384 234.727L102.688 215.786L115.019 215.333ZM119.85 217.479C119.04 217.509 118.366 217.3 117.827 216.851C117.306 216.384 117.032 215.8 117.006 215.098C116.98 214.379 117.21 213.776 117.697 213.289C118.2 212.785 118.857 212.517 119.667 212.488C120.458 212.459 121.114 212.678 121.636 213.145C122.175 213.593 122.457 214.177 122.484 214.897C122.51 215.598 122.271 216.202 121.767 216.706C121.28 217.193 120.641 217.45 119.85 217.479ZM122.201 218.96L122.753 234.016L118.139 234.185L117.587 219.129L122.201 218.96ZM130.236 220.8C130.642 220.082 131.242 219.493 132.036 219.031C132.829 218.57 133.748 218.32 134.791 218.282C136.032 218.236 137.168 218.51 138.199 219.102C139.229 219.695 140.053 220.565 140.672 221.713C141.309 222.861 141.655 224.208 141.712 225.755C141.769 227.302 141.522 228.68 140.972 229.889C140.439 231.079 139.681 232.017 138.698 232.701C137.714 233.368 136.601 233.724 135.36 233.769C134.298 233.808 133.364 233.635 132.558 233.251C131.75 232.848 131.109 232.304 130.634 231.619L130.711 233.724L126.097 233.893L125.364 213.927L129.978 213.757L130.236 220.8ZM137.017 225.927C136.975 224.776 136.618 223.888 135.947 223.265C135.293 222.622 134.498 222.318 133.563 222.353C132.645 222.386 131.875 222.748 131.252 223.437C130.647 224.126 130.365 225.046 130.408 226.197C130.45 227.348 130.798 228.245 131.452 228.887C132.124 229.529 132.919 229.833 133.836 229.8C134.753 229.766 135.524 229.404 136.147 228.715C136.769 228.008 137.059 227.078 137.017 225.927ZM151.271 233.185C149.796 233.239 148.453 232.973 147.243 232.387C146.051 231.801 145.091 230.935 144.365 229.791C143.657 228.646 143.274 227.292 143.216 225.727C143.159 224.18 143.451 222.809 144.092 221.615C144.732 220.402 145.634 219.46 146.798 218.787C147.962 218.113 149.282 217.75 150.757 217.696C152.232 217.641 153.574 217.907 154.785 218.493C155.995 219.079 156.964 219.953 157.691 221.116C158.417 222.26 158.809 223.605 158.866 225.152C158.922 226.699 158.622 228.079 157.964 229.292C157.323 230.486 156.412 231.42 155.23 232.094C154.066 232.767 152.746 233.131 151.271 233.185ZM151.125 229.192C152.006 229.16 152.741 228.808 153.328 228.138C153.934 227.468 154.215 226.53 154.171 225.325C154.127 224.119 153.787 223.204 153.151 222.579C152.534 221.953 151.785 221.657 150.903 221.689C150.004 221.722 149.269 222.073 148.699 222.743C148.129 223.394 147.866 224.331 147.911 225.554C147.955 226.76 148.277 227.675 148.876 228.302C149.494 228.928 150.243 229.224 151.125 229.192ZM170.205 217.036C171.968 216.971 173.392 217.495 174.477 218.608C175.58 219.702 176.168 221.248 176.242 223.244L176.565 232.041L171.978 232.209L171.678 224.033C171.641 223.026 171.351 222.253 170.809 221.715C170.267 221.176 169.555 220.923 168.674 220.956C167.792 220.988 167.101 221.292 166.6 221.869C166.099 222.446 165.866 223.238 165.903 224.245L166.204 232.421L161.59 232.59L161.037 217.534L165.651 217.365L165.724 219.362C166.167 218.679 166.778 218.134 167.555 217.727C168.332 217.303 169.216 217.072 170.205 217.036ZM178.576 224.402C178.519 222.855 178.757 221.486 179.29 220.296C179.841 219.105 180.608 218.176 181.592 217.509C182.576 216.843 183.689 216.487 184.93 216.441C185.992 216.402 186.926 216.584 187.733 216.987C188.559 217.389 189.2 217.933 189.657 218.618L189.579 216.487L194.193 216.317L194.746 231.373L190.132 231.542L190.054 229.411C189.63 230.129 189.021 230.719 188.227 231.18C187.452 231.641 186.533 231.891 185.472 231.93C184.249 231.975 183.122 231.701 182.091 231.108C181.06 230.498 180.227 229.619 179.59 228.471C178.971 227.305 178.633 225.949 178.576 224.402ZM189.855 224.015C189.813 222.863 189.456 221.967 188.784 221.325C188.13 220.683 187.344 220.378 186.427 220.412C185.51 220.446 184.739 220.807 184.116 221.496C183.51 222.167 183.229 223.078 183.271 224.229C183.313 225.38 183.662 226.286 184.316 226.947C184.988 227.589 185.783 227.893 186.7 227.859C187.618 227.825 188.379 227.464 188.984 226.775C189.607 226.086 189.898 225.166 189.855 224.015ZM196.89 223.756C196.832 222.191 197.097 220.813 197.684 219.62C198.288 218.427 199.146 217.495 200.256 216.824C201.384 216.152 202.686 215.789 204.161 215.735C206.049 215.666 207.641 216.103 208.937 217.046C210.25 217.988 211.138 219.352 211.6 221.136L206.689 221.316C206.233 220.18 205.411 219.634 204.224 219.678C203.379 219.709 202.716 220.066 202.237 220.75C201.757 221.416 201.54 222.361 201.585 223.584C201.63 224.807 201.916 225.742 202.444 226.389C202.972 227.018 203.658 227.317 204.504 227.286C205.691 227.243 206.47 226.638 206.842 225.471L211.752 225.291C211.421 227.068 210.636 228.484 209.395 229.538C208.155 230.593 206.6 231.154 204.729 231.223C203.254 231.277 201.929 231.01 200.755 230.423C199.599 229.835 198.675 228.968 197.985 227.823C197.312 226.677 196.947 225.321 196.89 223.756ZM213.227 223.157C213.169 221.592 213.434 220.213 214.02 219.021C214.625 217.828 215.482 216.896 216.593 216.224C217.721 215.553 219.022 215.19 220.497 215.135C222.386 215.066 223.978 215.503 225.274 216.446C226.587 217.389 227.475 218.752 227.936 220.536L223.026 220.716C222.57 219.58 221.748 219.034 220.561 219.078C219.715 219.109 219.053 219.466 218.574 220.15C218.094 220.816 217.877 221.761 217.921 222.984C217.966 224.207 218.253 225.143 218.781 225.79C219.308 226.419 219.995 226.718 220.84 226.687C222.027 226.643 222.807 226.038 223.178 224.872L228.089 224.691C227.758 226.469 226.972 227.885 225.732 228.939C224.492 229.993 222.937 230.554 221.066 230.623C219.591 230.677 218.266 230.411 217.092 229.823C215.935 229.235 215.012 228.369 214.322 227.223C213.649 226.077 213.284 224.722 213.227 223.157ZM232.467 213.345C231.658 213.375 230.984 213.165 230.445 212.717C229.923 212.25 229.65 211.665 229.624 210.964C229.598 210.244 229.828 209.641 230.314 209.155C230.818 208.65 231.475 208.383 232.284 208.354C233.075 208.324 233.732 208.544 234.253 209.011C234.792 209.459 235.075 210.043 235.101 210.763C235.127 211.464 234.888 212.067 234.384 212.572C233.898 213.058 233.259 213.316 232.467 213.345ZM234.818 214.826L235.371 229.882L230.757 230.051L230.204 214.995L234.818 214.826ZM251.293 229.486C249.908 229.537 248.658 229.358 247.544 228.949C246.431 228.539 245.525 227.906 244.827 227.049C244.147 226.191 243.766 225.143 243.685 223.903L248.595 223.722C248.693 224.421 248.956 224.952 249.383 225.315C249.81 225.659 250.356 225.819 251.022 225.795C251.706 225.77 252.24 225.597 252.624 225.277C253.008 224.938 253.19 224.49 253.169 223.933C253.152 223.465 252.976 223.084 252.641 222.79C252.324 222.496 251.928 222.258 251.453 222.078C250.996 221.896 250.34 221.695 249.486 221.474C248.248 221.141 247.236 220.8 246.449 220.451C245.662 220.102 244.976 219.568 244.391 218.851C243.806 218.134 243.492 217.182 243.448 215.995C243.384 214.232 243.972 212.833 245.213 211.797C246.453 210.742 248.098 210.178 250.149 210.102C252.235 210.026 253.936 210.468 255.25 211.428C256.563 212.371 257.298 213.73 257.453 215.508L252.461 215.691C252.403 215.081 252.161 214.613 251.734 214.286C251.307 213.941 250.77 213.781 250.123 213.805C249.565 213.825 249.121 213.995 248.79 214.313C248.459 214.613 248.304 215.042 248.324 215.6C248.347 216.212 248.652 216.678 249.24 216.998C249.828 217.319 250.741 217.655 251.979 218.005C253.217 218.374 254.221 218.734 254.991 219.084C255.778 219.433 256.464 219.957 257.048 220.656C257.632 221.355 257.944 222.272 257.986 223.405C258.026 224.484 257.783 225.475 257.258 226.376C256.75 227.278 255.985 228.008 254.96 228.568C253.936 229.128 252.714 229.434 251.293 229.486ZM274.94 220.648C274.955 221.08 274.945 221.53 274.908 222L264.466 222.383C264.573 223.316 264.896 224.025 265.436 224.509C265.993 224.975 266.659 225.194 267.432 225.165C268.584 225.123 269.366 224.608 269.78 223.62L274.691 223.44C274.475 224.439 274.049 225.346 273.413 226.162C272.794 226.977 271.999 227.628 271.026 228.114C270.053 228.6 268.955 228.865 267.732 228.91C266.257 228.964 264.932 228.697 263.758 228.11C262.584 227.523 261.651 226.656 260.961 225.511C260.27 224.366 259.896 223.01 259.839 221.445C259.781 219.881 260.046 218.502 260.633 217.31C261.237 216.117 262.104 215.184 263.232 214.512C264.36 213.84 265.67 213.477 267.163 213.422C268.62 213.369 269.927 213.627 271.082 214.197C272.238 214.767 273.152 215.607 273.823 216.717C274.512 217.827 274.884 219.137 274.94 220.648ZM270.173 219.607C270.144 218.816 269.851 218.196 269.294 217.748C268.738 217.3 268.055 217.091 267.245 217.121C266.472 217.149 265.823 217.398 265.3 217.868C264.795 218.337 264.495 218.987 264.399 219.819L270.173 219.607ZM281.812 215.613C282.322 214.766 282.972 214.094 283.765 213.596C284.556 213.081 285.447 212.805 286.436 212.769L286.615 217.653L285.347 217.699C284.196 217.741 283.342 218.025 282.785 218.55C282.227 219.057 281.971 219.931 282.016 221.172L282.273 228.16L277.659 228.329L277.106 213.274L281.72 213.104L281.812 215.613ZM290.91 211.2C290.101 211.229 289.427 211.02 288.888 210.571C288.366 210.104 288.093 209.52 288.067 208.818C288.041 208.099 288.271 207.496 288.757 207.01C289.261 206.505 289.918 206.238 290.727 206.208C291.519 206.179 292.175 206.398 292.697 206.865C293.235 207.314 293.518 207.898 293.544 208.617C293.57 209.319 293.331 209.922 292.827 210.427C292.341 210.913 291.702 211.171 290.91 211.2ZM293.261 212.68L293.814 227.736L289.2 227.906L288.647 212.85L293.261 212.68ZM311.065 219.322C311.081 219.754 311.07 220.204 311.033 220.674L300.591 221.057C300.698 221.99 301.021 222.699 301.561 223.183C302.118 223.649 302.784 223.868 303.557 223.839C304.709 223.797 305.491 223.282 305.905 222.294L310.816 222.114C310.6 223.112 310.174 224.02 309.538 224.836C308.919 225.651 308.124 226.301 307.151 226.787C306.178 227.273 305.08 227.539 303.857 227.584C302.382 227.638 301.057 227.371 299.883 226.784C298.709 226.197 297.776 225.33 297.086 224.185C296.395 223.039 296.021 221.684 295.964 220.119C295.906 218.554 296.171 217.176 296.758 215.983C297.362 214.79 298.229 213.858 299.357 213.186C300.485 212.514 301.795 212.151 303.288 212.096C304.745 212.043 306.052 212.301 307.207 212.871C308.363 213.441 309.277 214.281 309.948 215.391C310.637 216.501 311.009 217.811 311.065 219.322ZM306.298 218.281C306.269 217.489 305.976 216.87 305.42 216.422C304.863 215.974 304.18 215.765 303.37 215.795C302.597 215.823 301.948 216.072 301.425 216.542C300.92 217.01 300.62 217.661 300.524 218.493L306.298 218.281ZM319.917 226.994C318.604 227.042 317.426 226.861 316.384 226.448C315.343 226.036 314.511 225.455 313.889 224.703C313.266 223.933 312.901 223.064 312.793 222.095L317.353 221.928C317.426 222.448 317.685 222.861 318.128 223.169C318.572 223.477 319.109 223.62 319.738 223.597C320.314 223.575 320.75 223.451 321.048 223.224C321.364 222.978 321.515 222.676 321.501 222.316C321.485 221.884 321.249 221.578 320.792 221.396C320.334 221.197 319.597 220.99 318.581 220.775C317.492 220.563 316.583 220.335 315.854 220.092C315.124 219.83 314.487 219.412 313.944 218.838C313.4 218.245 313.109 217.437 313.071 216.411C313.039 215.548 313.244 214.757 313.686 214.038C314.146 213.301 314.826 212.708 315.729 212.261C316.649 211.813 317.747 211.565 319.025 211.519C320.913 211.449 322.414 211.862 323.528 212.758C324.66 213.653 325.335 214.871 325.553 216.412L321.29 216.569C321.199 216.05 320.95 215.645 320.543 215.353C320.154 215.061 319.645 214.927 319.015 214.95C318.476 214.97 318.066 215.093 317.786 215.32C317.506 215.528 317.372 215.812 317.385 216.172C317.401 216.604 317.638 216.919 318.095 217.118C318.571 217.317 319.298 217.507 320.278 217.687C321.403 217.934 322.322 218.188 323.035 218.45C323.746 218.694 324.374 219.121 324.919 219.732C325.481 220.324 325.79 221.141 325.846 222.183C325.879 223.065 325.656 223.866 325.178 224.586C324.717 225.287 324.027 225.853 323.106 226.283C322.203 226.712 321.14 226.949 319.917 226.994Z" fill="#222222"/>
<path d="M107.257 261.531L110.31 261.419L110.353 262.614L105.82 262.78L105.488 253.751L106.969 253.697L107.257 261.531ZM110.966 258.975C110.939 258.256 111.063 257.614 111.337 257.049C111.62 256.484 112.011 256.04 112.511 255.718C113.02 255.387 113.585 255.21 114.209 255.187C114.772 255.167 115.265 255.261 115.689 255.471C116.122 255.672 116.47 255.933 116.733 256.253L116.695 255.213L118.189 255.158L118.451 262.317L116.957 262.371L116.918 261.306C116.68 261.653 116.348 261.947 115.923 262.188C115.498 262.429 115.009 262.56 114.454 262.58C113.839 262.603 113.271 262.468 112.748 262.175C112.226 261.873 111.802 261.446 111.479 260.894C111.163 260.334 110.992 259.694 110.966 258.975ZM116.826 258.786C116.808 258.292 116.688 257.867 116.467 257.511C116.254 257.155 115.98 256.887 115.644 256.709C115.308 256.53 114.949 256.448 114.568 256.462C114.187 256.476 113.835 256.584 113.513 256.787C113.191 256.981 112.932 257.264 112.738 257.635C112.552 257.997 112.468 258.425 112.486 258.919C112.504 259.413 112.619 259.842 112.832 260.207C113.054 260.572 113.333 260.848 113.669 261.035C114.014 261.213 114.373 261.296 114.745 261.282C115.126 261.268 115.478 261.16 115.8 260.957C116.122 260.754 116.376 260.467 116.562 260.096C116.756 259.716 116.844 259.28 116.826 258.786ZM122.999 262.267C122.436 262.287 121.926 262.206 121.468 262.024C121.019 261.832 120.658 261.568 120.385 261.231C120.113 260.885 119.96 260.496 119.926 260.064L121.459 260.008C121.496 260.31 121.649 260.56 121.916 260.758C122.192 260.948 122.529 261.035 122.927 261.021C123.343 261.005 123.661 260.916 123.88 260.751C124.108 260.578 124.217 260.366 124.208 260.115C124.198 259.846 124.061 259.652 123.796 259.532C123.54 259.411 123.132 259.283 122.572 259.147C122.03 259.02 121.587 258.893 121.245 258.767C120.902 258.641 120.599 258.439 120.338 258.163C120.085 257.886 119.95 257.513 119.933 257.046C119.919 256.665 120.018 256.314 120.232 255.994C120.446 255.665 120.757 255.402 121.166 255.205C121.584 255.008 122.065 254.899 122.611 254.879C123.425 254.849 124.087 255.033 124.595 255.431C125.113 255.819 125.402 256.368 125.462 257.077L123.981 257.131C123.944 256.812 123.804 256.561 123.564 256.379C123.323 256.197 123.003 256.113 122.605 256.128C122.215 256.142 121.919 256.227 121.716 256.382C121.514 256.537 121.417 256.735 121.426 256.978C121.433 257.168 121.508 257.326 121.652 257.451C121.795 257.576 121.968 257.673 122.17 257.744C122.371 257.806 122.669 257.886 123.063 257.984C123.588 258.104 124.017 258.231 124.352 258.366C124.695 258.493 124.993 258.69 125.245 258.958C125.498 259.226 125.637 259.59 125.663 260.049C125.678 260.456 125.578 260.823 125.365 261.152C125.151 261.481 124.84 261.744 124.431 261.941C124.031 262.138 123.553 262.246 122.999 262.267ZM128.846 255.977L128.991 259.939C129.001 260.208 129.069 260.4 129.195 260.517C129.329 260.625 129.547 260.673 129.85 260.662L130.76 260.629L130.805 261.863L129.636 261.906C128.969 261.93 128.452 261.793 128.086 261.495C127.719 261.196 127.523 260.696 127.497 259.994L127.352 256.032L126.507 256.063L126.463 254.855L127.307 254.824L127.242 253.044L128.736 252.989L128.801 254.769L130.542 254.705L130.587 255.913L128.846 255.977ZM136.681 252.606L136.892 258.361C136.918 259.046 137.114 259.554 137.482 259.888C137.858 260.221 138.367 260.376 139.008 260.352C139.657 260.328 140.153 260.137 140.496 259.777C140.847 259.417 141.01 258.895 140.985 258.211L140.773 252.456L142.254 252.402L142.465 258.131C142.492 258.867 142.354 259.496 142.053 260.019C141.751 260.542 141.336 260.939 140.809 261.21C140.281 261.481 139.692 261.628 139.043 261.652C138.393 261.676 137.795 261.572 137.249 261.34C136.711 261.109 136.277 260.743 135.947 260.243C135.616 259.744 135.438 259.126 135.411 258.39L135.2 252.661L136.681 252.606ZM145.771 255.2C146.01 254.861 146.342 254.572 146.767 254.33C147.192 254.089 147.677 253.959 148.222 253.939C148.846 253.916 149.419 254.051 149.941 254.344C150.472 254.628 150.895 255.042 151.21 255.585C151.525 256.129 151.695 256.76 151.722 257.479C151.748 258.198 151.625 258.848 151.351 259.431C151.077 260.004 150.686 260.461 150.178 260.801C149.679 261.131 149.117 261.308 148.494 261.331C147.948 261.351 147.459 261.26 147.027 261.059C146.594 260.85 146.238 260.585 145.957 260.266L146.12 264.709L144.639 264.764L144.251 254.202L145.732 254.147L145.771 255.2ZM150.215 257.534C150.197 257.04 150.077 256.62 149.856 256.272C149.644 255.916 149.365 255.653 149.021 255.484C148.685 255.305 148.326 255.223 147.945 255.237C147.572 255.251 147.221 255.359 146.89 255.562C146.568 255.764 146.31 256.051 146.115 256.423C145.929 256.794 145.845 257.226 145.864 257.72C145.882 258.214 145.997 258.643 146.21 259.008C146.431 259.364 146.71 259.631 147.046 259.81C147.391 259.988 147.749 260.07 148.122 260.057C148.503 260.043 148.854 259.934 149.177 259.732C149.507 259.52 149.765 259.224 149.951 258.845C150.145 258.465 150.233 258.028 150.215 257.534ZM152.693 257.443C152.666 256.724 152.79 256.082 153.064 255.517C153.347 254.952 153.738 254.508 154.238 254.186C154.746 253.855 155.317 253.678 155.949 253.655C156.416 253.638 156.879 253.725 157.337 253.916C157.804 254.099 158.177 254.354 158.458 254.682L158.331 251.226L159.825 251.171L160.178 260.785L158.684 260.84L158.645 259.761C158.415 260.117 158.088 260.415 157.663 260.656C157.247 260.897 156.761 261.027 156.207 261.048C155.584 261.071 155.006 260.936 154.475 260.643C153.952 260.341 153.529 259.914 153.205 259.363C152.89 258.802 152.719 258.162 152.693 257.443ZM158.553 257.254C158.534 256.76 158.415 256.336 158.194 255.979C157.981 255.623 157.707 255.355 157.371 255.177C157.034 254.999 156.676 254.916 156.295 254.93C155.914 254.944 155.562 255.053 155.24 255.255C154.918 255.449 154.659 255.732 154.465 256.103C154.278 256.466 154.194 256.894 154.213 257.387C154.231 257.881 154.346 258.31 154.559 258.676C154.781 259.04 155.06 259.316 155.396 259.503C155.741 259.682 156.099 259.764 156.472 259.75C156.853 259.736 157.204 259.628 157.527 259.425C157.849 259.223 158.103 258.936 158.288 258.565C158.483 258.185 158.571 257.748 158.553 257.254ZM161.497 257.12C161.471 256.401 161.595 255.759 161.869 255.194C162.152 254.629 162.543 254.185 163.043 253.863C163.551 253.532 164.117 253.355 164.74 253.332C165.303 253.312 165.797 253.406 166.221 253.616C166.653 253.817 167.001 254.078 167.264 254.398L167.226 253.358L168.72 253.303L168.983 260.462L167.489 260.516L167.45 259.451C167.211 259.798 166.879 260.092 166.454 260.333C166.03 260.574 165.54 260.705 164.986 260.725C164.371 260.748 163.802 260.613 163.28 260.32C162.757 260.018 162.334 259.591 162.01 259.039C161.694 258.479 161.524 257.839 161.497 257.12ZM167.357 256.931C167.339 256.437 167.219 256.012 166.998 255.656C166.786 255.3 166.511 255.032 166.175 254.854C165.839 254.675 165.48 254.593 165.099 254.607C164.718 254.621 164.367 254.729 164.045 254.932C163.722 255.126 163.464 255.409 163.269 255.78C163.083 256.142 162.999 256.57 163.017 257.064C163.035 257.558 163.151 257.987 163.364 258.352C163.585 258.717 163.864 258.993 164.201 259.18C164.545 259.358 164.904 259.441 165.276 259.427C165.657 259.413 166.009 259.305 166.331 259.102C166.653 258.899 166.907 258.612 167.093 258.241C167.287 257.861 167.375 257.425 167.357 256.931ZM172.437 254.377L172.583 258.339C172.593 258.608 172.661 258.8 172.786 258.917C172.92 259.025 173.139 259.073 173.442 259.062L174.351 259.029L174.397 260.263L173.227 260.306C172.561 260.33 172.044 260.193 171.677 259.894C171.311 259.596 171.115 259.095 171.089 258.394L170.943 254.432L170.099 254.463L170.055 253.254L170.899 253.223L170.834 251.444L172.328 251.389L172.393 253.169L174.134 253.105L174.178 254.313L172.437 254.377ZM182.184 256.217C182.194 256.486 182.186 256.729 182.159 256.947L176.69 257.148C176.754 257.718 176.983 258.169 177.377 258.501C177.771 258.834 178.245 258.99 178.799 258.969C179.596 258.94 180.147 258.586 180.451 257.907L182.049 257.848C181.857 258.515 181.483 259.07 180.927 259.516C180.379 259.952 179.685 260.186 178.845 260.217C178.161 260.242 177.54 260.113 176.983 259.83C176.435 259.538 175.995 259.12 175.663 258.577C175.339 258.025 175.163 257.381 175.136 256.645C175.109 255.909 175.233 255.258 175.507 254.693C175.79 254.119 176.194 253.671 176.72 253.348C177.254 253.025 177.872 252.85 178.574 252.825C179.249 252.8 179.856 252.925 180.396 253.2C180.935 253.475 181.361 253.876 181.675 254.402C181.989 254.919 182.159 255.525 182.184 256.217ZM180.621 255.806C180.593 255.261 180.382 254.831 179.989 254.516C179.595 254.201 179.117 254.053 178.554 254.074C178.043 254.093 177.612 254.274 177.26 254.616C176.908 254.95 176.708 255.395 176.659 255.952L180.621 255.806ZM183.153 256.325C183.127 255.606 183.251 254.964 183.525 254.399C183.808 253.834 184.199 253.39 184.699 253.068C185.207 252.737 185.777 252.56 186.41 252.537C186.877 252.52 187.34 252.607 187.798 252.798C188.265 252.981 188.638 253.236 188.919 253.564L188.792 250.108L190.286 250.053L190.639 259.667L189.145 259.721L189.106 258.643C188.876 258.998 188.548 259.297 188.124 259.538C187.708 259.779 187.222 259.909 186.668 259.929C186.044 259.952 185.467 259.817 184.936 259.525C184.413 259.223 183.99 258.796 183.666 258.244C183.351 257.684 183.18 257.044 183.153 256.325ZM189.013 256.136C188.995 255.642 188.876 255.217 188.654 254.861C188.442 254.505 188.168 254.237 187.831 254.059C187.495 253.88 187.137 253.798 186.756 253.812C186.375 253.826 186.023 253.934 185.701 254.137C185.378 254.331 185.12 254.614 184.926 254.985C184.739 255.347 184.655 255.775 184.673 256.269C184.692 256.763 184.807 257.192 185.02 257.557C185.241 257.922 185.52 258.198 185.857 258.385C186.202 258.563 186.56 258.646 186.933 258.632C187.314 258.618 187.665 258.51 187.987 258.307C188.31 258.104 188.564 257.817 188.749 257.446C188.944 257.066 189.032 256.63 189.013 256.136ZM193.185 259.664C192.917 259.674 192.688 259.591 192.5 259.416C192.311 259.241 192.212 259.019 192.202 258.751C192.192 258.482 192.275 258.254 192.45 258.065C192.625 257.877 192.847 257.777 193.116 257.767C193.375 257.758 193.6 257.841 193.788 258.016C193.977 258.191 194.076 258.413 194.086 258.681C194.096 258.95 194.013 259.178 193.838 259.367C193.663 259.556 193.445 259.655 193.185 259.664ZM192.985 254.208C192.716 254.218 192.488 254.135 192.299 253.96C192.111 253.785 192.012 253.563 192.002 253.294C191.992 253.026 192.075 252.797 192.25 252.609C192.425 252.42 192.647 252.321 192.915 252.311C193.175 252.302 193.399 252.384 193.588 252.56C193.776 252.735 193.876 252.957 193.886 253.225C193.895 253.494 193.813 253.722 193.638 253.911C193.462 254.099 193.245 254.198 192.985 254.208ZM199.693 257.318C200.498 256.568 201.13 255.956 201.59 255.479C202.058 254.994 202.443 254.494 202.745 253.98C203.047 253.466 203.188 252.957 203.17 252.455C203.151 251.935 203.01 251.533 202.748 251.248C202.495 250.962 202.104 250.829 201.576 250.848C201.065 250.867 200.673 251.046 200.399 251.386C200.134 251.717 200.002 252.155 200.005 252.701L198.576 252.754C198.566 251.765 198.832 251.001 199.376 250.461C199.929 249.912 200.642 249.621 201.517 249.589C202.461 249.554 203.206 249.787 203.754 250.287C204.31 250.787 204.604 251.47 204.636 252.336C204.659 252.96 204.52 253.568 204.221 254.16C203.93 254.743 203.573 255.272 203.148 255.747C202.731 256.213 202.196 256.758 201.543 257.38L200.977 257.921L205.095 257.77L205.141 259.004L198.827 259.236L198.787 258.158L199.693 257.318ZM206.268 254.228C206.213 252.729 206.421 251.551 206.893 250.692C207.373 249.825 208.232 249.368 209.47 249.323C210.709 249.277 211.595 249.67 212.128 250.5C212.67 251.321 212.968 252.481 213.023 253.98C213.079 255.495 212.867 256.691 212.388 257.567C211.917 258.435 211.062 258.891 209.823 258.936C208.585 258.982 207.694 258.59 207.152 257.76C206.618 256.921 206.324 255.743 206.268 254.228ZM211.568 254.033C211.543 253.331 211.473 252.74 211.36 252.258C211.256 251.777 211.059 251.389 210.771 251.096C210.483 250.795 210.066 250.654 209.52 250.674C208.974 250.694 208.569 250.865 208.303 251.187C208.037 251.5 207.865 251.901 207.788 252.39C207.719 252.878 207.697 253.473 207.723 254.174C207.75 254.902 207.815 255.511 207.92 256.001C208.025 256.492 208.221 256.883 208.51 257.176C208.807 257.469 209.228 257.605 209.774 257.585C210.319 257.565 210.725 257.399 210.991 257.085C211.266 256.772 211.437 256.366 211.506 255.87C211.574 255.373 211.595 254.761 211.568 254.033ZM220.264 253.245L220.309 254.493L214.97 254.689L214.924 253.441L220.264 253.245ZM222.19 253.643C222.135 252.145 222.343 250.966 222.815 250.108C223.295 249.24 224.154 248.784 225.392 248.738C226.631 248.693 227.517 249.085 228.05 249.916C228.592 250.737 228.89 251.897 228.945 253.395C229.001 254.911 228.789 256.107 228.31 256.983C227.838 257.85 226.984 258.306 225.745 258.352C224.507 258.397 223.616 258.005 223.074 257.175C222.54 256.336 222.246 255.159 222.19 253.643ZM227.49 253.449C227.465 252.747 227.395 252.155 227.282 251.674C227.178 251.192 226.981 250.805 226.693 250.512C226.405 250.21 225.987 250.069 225.442 250.089C224.896 250.109 224.49 250.28 224.225 250.602C223.959 250.916 223.787 251.317 223.71 251.805C223.641 252.293 223.619 252.888 223.645 253.59C223.672 254.317 223.737 254.926 223.842 255.417C223.947 255.907 224.143 256.299 224.432 256.592C224.729 256.884 225.15 257.021 225.695 257.001C226.241 256.981 226.647 256.814 226.913 256.501C227.188 256.187 227.359 255.782 227.428 255.285C227.496 254.788 227.517 254.176 227.49 253.449ZM230.198 250.084L230.148 248.733L232.85 248.634L233.198 258.104L231.704 258.159L231.406 250.04L230.198 250.084ZM240.727 252.494L240.773 253.741L235.434 253.937L235.388 252.69L240.727 252.494ZM243.577 255.707C244.382 254.958 245.014 254.345 245.473 253.868C245.941 253.383 246.326 252.883 246.628 252.369C246.93 251.855 247.072 251.346 247.054 250.844C247.034 250.324 246.894 249.922 246.632 249.637C246.379 249.351 245.988 249.218 245.46 249.237C244.949 249.256 244.556 249.435 244.282 249.775C244.017 250.106 243.886 250.544 243.888 251.09L242.459 251.143C242.449 250.155 242.716 249.39 243.26 248.85C243.812 248.301 244.526 248.01 245.4 247.978C246.344 247.943 247.09 248.176 247.637 248.676C248.193 249.176 248.487 249.859 248.519 250.725C248.542 251.349 248.404 251.957 248.105 252.549C247.814 253.132 247.456 253.661 247.031 254.136C246.615 254.602 246.08 255.147 245.426 255.769L244.861 256.31L248.979 256.159L249.024 257.393L242.71 257.625L242.671 256.547L243.577 255.707ZM250.152 252.617C250.097 251.118 250.305 249.94 250.776 249.081C251.256 248.214 252.115 247.757 253.354 247.712C254.592 247.666 255.478 248.059 256.012 248.889C256.554 249.71 256.852 250.87 256.907 252.369C256.963 253.884 256.751 255.08 256.271 255.956C255.8 256.824 254.945 257.28 253.707 257.325C252.468 257.371 251.578 256.979 251.036 256.149C250.502 255.31 250.207 254.132 250.152 252.617ZM255.452 252.422C255.426 251.721 255.357 251.129 255.244 250.647C255.139 250.166 254.943 249.778 254.655 249.485C254.366 249.184 253.949 249.043 253.403 249.063C252.858 249.083 252.452 249.254 252.186 249.576C251.92 249.889 251.749 250.29 251.671 250.779C251.602 251.267 251.581 251.862 251.607 252.563C251.633 253.291 251.699 253.9 251.804 254.39C251.908 254.881 252.105 255.272 252.393 255.565C252.69 255.858 253.111 255.994 253.657 255.974C254.203 255.954 254.609 255.788 254.875 255.474C255.149 255.161 255.321 254.755 255.389 254.259C255.458 253.762 255.479 253.15 255.452 252.422ZM259.397 255.126C260.202 254.377 260.834 253.764 261.294 253.287C261.762 252.802 262.147 252.302 262.449 251.788C262.751 251.274 262.892 250.766 262.874 250.263C262.855 249.744 262.714 249.341 262.452 249.056C262.199 248.77 261.808 248.637 261.28 248.657C260.769 248.675 260.377 248.855 260.103 249.194C259.837 249.525 259.706 249.963 259.709 250.51L258.28 250.562C258.27 249.574 258.536 248.809 259.08 248.269C259.632 247.72 260.346 247.429 261.221 247.397C262.165 247.362 262.91 247.595 263.458 248.095C264.014 248.595 264.308 249.278 264.34 250.144C264.362 250.768 264.224 251.376 263.925 251.968C263.634 252.551 263.277 253.08 262.852 253.555C262.435 254.022 261.9 254.566 261.247 255.188L260.681 255.729L264.799 255.578L264.845 256.812L258.531 257.044L258.491 255.966L259.397 255.126ZM265.657 248.782L265.608 247.431L268.31 247.332L268.658 256.803L267.164 256.857L266.866 248.738L265.657 248.782Z" fill="#9D9D9D"/>
<rect x="109.921" y="401.071" width="112.544" height="37.0293" rx="9" transform="rotate(-2.10238 109.921 401.071)" fill="#4B5EB2"/>
<path d="M129.992 417.855C129.954 416.816 130.145 415.883 130.565 415.057C130.984 414.221 131.586 413.564 132.369 413.085C133.161 412.595 134.067 412.332 135.086 412.294C136.336 412.249 137.417 412.539 138.331 413.166C139.244 413.793 139.872 414.67 140.213 415.799L137.395 415.902C137.169 415.47 136.857 415.146 136.459 414.931C136.071 414.715 135.632 414.616 135.142 414.634C134.353 414.663 133.723 414.961 133.254 415.529C132.784 416.096 132.566 416.84 132.6 417.759C132.634 418.679 132.906 419.404 133.416 419.936C133.925 420.468 134.575 420.719 135.365 420.69C135.854 420.672 136.285 420.541 136.656 420.297C137.037 420.053 137.325 419.707 137.519 419.26L140.337 419.156C140.079 420.307 139.517 421.228 138.652 421.92C137.786 422.602 136.729 422.966 135.48 423.012C134.461 423.05 133.538 422.858 132.712 422.438C131.896 422.008 131.248 421.396 130.768 420.603C130.289 419.811 130.03 418.894 129.992 417.855ZM145.85 422.677C145.031 422.707 144.285 422.559 143.613 422.233C142.95 421.907 142.417 421.427 142.014 420.791C141.62 420.155 141.407 419.402 141.375 418.533C141.344 417.674 141.506 416.912 141.862 416.249C142.217 415.575 142.718 415.051 143.365 414.677C144.012 414.303 144.745 414.101 145.564 414.071C146.384 414.041 147.13 414.189 147.802 414.514C148.475 414.84 149.013 415.326 149.417 415.971C149.82 416.607 150.038 417.354 150.069 418.214C150.101 419.073 149.934 419.84 149.568 420.514C149.213 421.177 148.706 421.696 148.05 422.07C147.403 422.444 146.67 422.646 145.85 422.677ZM145.769 420.458C146.259 420.44 146.667 420.245 146.993 419.873C147.33 419.5 147.486 418.979 147.461 418.31C147.437 417.64 147.248 417.132 146.895 416.784C146.552 416.437 146.136 416.272 145.646 416.29C145.146 416.308 144.738 416.503 144.422 416.875C144.105 417.237 143.959 417.758 143.984 418.437C144.008 419.107 144.187 419.616 144.52 419.964C144.863 420.311 145.279 420.476 145.769 420.458ZM156.369 413.705C157.348 413.669 158.14 413.96 158.743 414.578C159.355 415.186 159.682 416.045 159.723 417.154L159.902 422.041L157.354 422.134L157.187 417.592C157.167 417.033 157.006 416.603 156.705 416.304C156.403 416.005 156.008 415.864 155.518 415.882C155.029 415.9 154.645 416.069 154.366 416.39C154.088 416.71 153.959 417.15 153.979 417.71L154.146 422.252L151.583 422.346L151.276 413.982L153.839 413.888L153.88 414.997C154.126 414.618 154.465 414.315 154.897 414.089C155.329 413.853 155.819 413.725 156.369 413.705ZM166.266 419.631L166.345 421.804L165.041 421.852C164.112 421.886 163.379 421.688 162.843 421.257C162.306 420.817 162.019 420.082 161.981 419.052L161.859 415.725L160.84 415.762L160.762 413.633L161.781 413.596L161.706 411.557L164.27 411.463L164.344 413.502L166.023 413.44L166.101 415.569L164.423 415.63L164.546 418.988C164.555 419.238 164.622 419.416 164.746 419.521C164.869 419.627 165.071 419.674 165.351 419.664L166.266 419.631ZM168.723 412.471C168.274 412.487 167.899 412.371 167.6 412.122C167.31 411.862 167.158 411.537 167.144 411.148C167.129 410.748 167.257 410.413 167.527 410.143C167.807 409.862 168.172 409.714 168.621 409.697C169.061 409.681 169.426 409.803 169.716 410.063C170.015 410.312 170.172 410.636 170.187 411.036C170.201 411.426 170.068 411.761 169.788 412.041C169.518 412.311 169.163 412.454 168.723 412.471ZM170.029 413.293L170.336 421.658L167.773 421.752L167.466 413.387L170.029 413.293ZM176.98 412.948C177.96 412.912 178.751 413.203 179.354 413.822C179.967 414.429 180.293 415.288 180.334 416.397L180.513 421.284L177.965 421.378L177.798 416.836C177.778 416.276 177.617 415.847 177.316 415.547C177.015 415.248 176.619 415.108 176.129 415.126C175.64 415.144 175.256 415.313 174.977 415.633C174.699 415.954 174.57 416.394 174.591 416.953L174.757 421.495L172.194 421.589L171.887 413.225L174.45 413.131L174.491 414.24C174.737 413.861 175.076 413.558 175.508 413.332C175.94 413.096 176.431 412.968 176.98 412.948ZM190.247 412.551L190.554 420.915L187.991 421.01L187.949 419.87C187.703 420.25 187.359 420.562 186.918 420.809C186.486 421.045 186 421.173 185.461 421.192C184.821 421.216 184.251 421.097 183.751 420.835C183.251 420.563 182.856 420.162 182.567 419.633C182.277 419.103 182.119 418.473 182.092 417.744L181.913 412.857L184.461 412.763L184.628 417.305C184.648 417.865 184.809 418.294 185.11 418.594C185.411 418.893 185.807 419.033 186.296 419.015C186.796 418.997 187.185 418.828 187.464 418.507C187.742 418.187 187.871 417.747 187.85 417.187L187.684 412.645L190.247 412.551ZM200.121 416.241C200.13 416.481 200.124 416.732 200.104 416.992L194.303 417.205C194.362 417.724 194.541 418.117 194.842 418.386C195.151 418.645 195.521 418.767 195.951 418.751C196.59 418.728 197.025 418.441 197.255 417.893L199.983 417.792C199.863 418.347 199.627 418.851 199.273 419.304C198.93 419.757 198.488 420.119 197.947 420.389C197.407 420.659 196.797 420.806 196.117 420.831C195.298 420.861 194.562 420.713 193.909 420.387C193.257 420.061 192.739 419.579 192.355 418.943C191.972 418.307 191.764 417.554 191.732 416.684C191.7 415.815 191.847 415.049 192.173 414.387C192.509 413.724 192.99 413.206 193.617 412.833C194.244 412.459 194.972 412.258 195.801 412.227C196.611 412.197 197.336 412.341 197.978 412.657C198.621 412.974 199.128 413.441 199.501 414.058C199.884 414.674 200.091 415.402 200.121 416.241ZM197.473 415.663C197.457 415.223 197.295 414.879 196.985 414.63C196.676 414.381 196.296 414.265 195.847 414.282C195.417 414.298 195.057 414.436 194.766 414.697C194.486 414.957 194.319 415.319 194.266 415.781L197.473 415.663Z" fill="white"/>
<circle cx="398.938" cy="403.834" r="2.62952" transform="rotate(-2.10238 398.938 403.834)" fill="#222222"/>
<circle cx="399.246" cy="412.243" r="2.62952" transform="rotate(-2.10238 399.246 412.243)" fill="#222222"/>
<circle cx="399.555" cy="420.651" r="2.62952" transform="rotate(-2.10238 399.555 420.651)" fill="#222222"/>
</g>
</g>
<defs>
<filter id="filter0_d" x="153.827" y="41" width="514.201" height="453.105" filterUnits="userSpaceOnUse" color-interpolation-filters="sRGB">
<feFlood flood-opacity="0" result="BackgroundImageFix"/>
<feColorMatrix in="SourceAlpha" type="matrix" values="0 0 0 0 0 0 0 0 0 0 0 0 0 0 0 0 0 0 127 0"/>
<feOffset dy="4"/>
<feGaussianBlur stdDeviation="25"/>
<feColorMatrix type="matrix" values="0 0 0 0 0 0 0 0 0 0 0 0 0 0 0 0 0 0 0.25 0"/>
<feBlend mode="normal" in2="BackgroundImageFix" result="effect1_dropShadow"/>
<feBlend mode="normal" in="SourceGraphic" in2="effect1_dropShadow" result="shape"/>
</filter>
<filter id="filter1_d" x="9" y="130.415" width="466.24" height="383.214" filterUnits="userSpaceOnUse" color-interpolation-filters="sRGB">
<feFlood flood-opacity="0" result="BackgroundImageFix"/>
<feColorMatrix in="SourceAlpha" type="matrix" values="0 0 0 0 0 0 0 0 0 0 0 0 0 0 0 0 0 0 127 0"/>
<feOffset dy="4"/>
<feGaussianBlur stdDeviation="25"/>
<feColorMatrix type="matrix" values="0 0 0 0 0 0 0 0 0 0 0 0 0 0 0 0 0 0 0.25 0"/>
<feBlend mode="normal" in2="BackgroundImageFix" result="effect1_dropShadow"/>
<feBlend mode="normal" in="SourceGraphic" in2="effect1_dropShadow" result="shape"/>
</filter>
<clipPath id="clip0">
<rect width="638" height="545" fill="white"/>
</clipPath>
</defs>
</svg>
