<svg width="1440" height="4258" viewBox="0 0 1440 4258" fill="none" xmlns="http://www.w3.org/2000/svg">
<g clip-path="url(#clip0)">
<rect width="1440" height="4258" fill="#4B5EB2"/>
<path opacity="0.07" d="M-167.695 972.617C-171.902 815.678 -114.935 650.958 -2.70852 552.197C110.042 454.006 278.052 421.774 416.407 454.585C555.284 487.968 663.411 586.347 787.527 695.28C912.214 803.69 1051.8 922.606 1049.04 1037.59C1046.28 1152.57 900.665 1263.05 769.156 1325.9C637.646 1388.76 519.674 1404.51 388.284 1413.65C256.37 1422.23 109.944 1424.14 5.11081 1351.12C-99.7226 1278.1 -164.01 1128.98 -167.695 972.617Z" fill="#B3C3F9"/>
<path opacity="0.07" d="M1573.4 1762.69C1624.16 1898.96 1623.65 2060.41 1554.92 2180.62C1485.57 2300.5 1348 2379.14 1216.91 2391.89C1085.19 2404.3 960.917 2350.52 819.469 2292.28C677.677 2234.68 565.492 2163.83 533.415 2062.24C501.338 1960.65 549.999 1828.65 646.395 1734.12C742.79 1639.58 841.452 1590.39 953.854 1542.96C1066.89 1495.88 1194.63 1450.27 1308.41 1482.82C1422.19 1515.37 1523.26 1626.76 1573.4 1762.69Z" fill="#B3C3F9"/>
<path opacity="0.07" d="M-162.137 2545.52C-212.902 2681.8 -230.862 2723.42 -162.137 2843.64C-92.7813 2963.51 70.9086 3019.35 202 3032.1C333.721 3044.5 466.552 3025.22 608 2966.99C749.792 2909.39 850.888 2849.29 882.965 2747.69C915.042 2646.1 869.793 2552.68 773.397 2458.15C677.002 2363.62 581.428 2336.5 458.072 2315.94C334.716 2295.38 166.813 2291.96 74.2959 2315.94C-18.2213 2339.93 -112.001 2409.59 -162.137 2545.52Z" fill="#B3C3F9"/>
<path fill-rule="evenodd" clip-rule="evenodd" d="M1440 0H0V785.467L80 801.467C160 817.467 320 849.467 480 822.767C556.6 810.175 633.2 783.901 709.8 757.627C793.2 729.02 876.6 700.413 960 689.467C1120 668.467 1280 710.467 1360 732.167L1440 753.467V0Z" fill="white"/>
<circle cx="697.5" cy="591.5" r="23.5" fill="#4B5EB2"/>
<circle cx="781.036" cy="537.5" r="14.5" fill="#FFDC60"/>
<circle cx="97.1568" cy="211.521" r="22.8433" fill="#FFDC60"/>
<circle opacity="0.9" cx="81.8417" cy="18.3373" r="136.158" fill="#FFDC60"/>
<ellipse opacity="0.86" cx="1306.95" cy="84.7563" rx="498.917" ry="484.464" fill="#FFDC60"/>
<path opacity="0.07" d="M1721.47 3071.12C1678.73 2932.12 1667.62 2888.17 1539.9 2834.69C1411.88 2781.86 1248.04 2837.28 1136.31 2907.01C1024.28 2977.41 930.679 3073.6 853.965 3205.94C776.596 3337.99 733.025 3447.23 769.465 3547.35C805.904 3647.46 898.692 3693.99 1032.72 3710.25C1166.75 3726.51 1259.06 3689.8 1369.42 3630.97C1479.78 3572.14 1615.03 3472.59 1673.79 3397.21C1732.56 3321.84 1764.5 3209.47 1721.47 3071.12Z" fill="#B3C3F9"/>
</g>
<defs>
<clipPath id="clip0">
<rect width="1440" height="4258" fill="white"/>
</clipPath>
</defs>
</svg>
