<svg width="678" height="501" viewBox="0 0 678 501" fill="none" xmlns="http://www.w3.org/2000/svg">
<g filter="url(#filter0_d)">
<rect x="162" y="52" width="316.53" height="360.903" rx="8" fill="white"/>
<rect opacity="0.9" x="181.647" y="82.3878" width="271.337" height="10.9493" rx="5.47467" fill="#777777"/>
<path opacity="0.3" fill-rule="evenodd" clip-rule="evenodd" d="M181.648 237.729C181.648 234.705 184.099 232.254 187.122 232.254H447.51C450.534 232.254 452.985 234.705 452.985 237.729C452.985 240.752 450.534 243.203 447.51 243.203H187.122C184.099 243.203 181.648 240.752 181.648 237.729ZM181.647 284.913C181.647 281.89 184.099 279.439 187.122 279.439H447.51C450.534 279.439 452.985 281.89 452.985 284.913C452.985 287.937 450.534 290.388 447.51 290.388H187.122C184.099 290.388 181.647 287.937 181.647 284.913ZM187.122 303.031C184.099 303.031 181.648 305.482 181.648 308.506C181.648 311.53 184.099 313.981 187.122 313.981H447.51C450.534 313.981 452.985 311.53 452.985 308.506C452.985 305.482 450.534 303.031 447.51 303.031H187.122ZM181.648 332.098C181.648 329.075 184.099 326.624 187.122 326.624H447.51C450.534 326.624 452.985 329.075 452.985 332.098C452.985 335.122 450.534 337.573 447.51 337.573H187.122C184.099 337.573 181.648 335.122 181.648 332.098ZM187.122 350.216C184.099 350.216 181.648 352.667 181.648 355.691C181.648 358.714 184.099 361.166 187.122 361.166H447.51C450.534 361.166 452.985 358.714 452.985 355.691C452.985 352.667 450.534 350.216 447.51 350.216H187.122ZM181.648 379.283C181.648 376.26 184.099 373.809 187.122 373.809H447.51C450.534 373.809 452.985 376.26 452.985 379.283C452.985 382.307 450.534 384.758 447.51 384.758H187.122C184.099 384.758 181.648 382.307 181.648 379.283ZM187.122 255.846C184.099 255.846 181.648 258.297 181.648 261.321C181.648 264.345 184.099 266.796 187.122 266.796H447.51C450.534 266.796 452.985 264.345 452.985 261.321C452.985 258.297 450.534 255.846 447.51 255.846H187.122Z" fill="url(#paint0_linear)"/>
<rect x="181.647" y="109.761" width="271.337" height="106.069" rx="8" fill="#F3F3F3"/>
</g>
<g filter="url(#filter1_d)">
<rect x="295.12" y="118.067" width="316.53" height="359.917" rx="8" fill="white"/>
<rect opacity="0.9" x="320.271" y="144.644" width="266.445" height="14.9125" rx="7.45625" fill="#505050"/>
<rect opacity="0.74" x="320.271" y="303.072" width="250.181" height="15.1768" rx="7.58842" fill="#FF6767"/>
<rect opacity="0.74" x="320.271" y="364.98" width="223" height="15.1768" rx="7.58841" fill="#6398FF"/>
<rect opacity="0.74" x="320.271" y="395.934" width="70.9426" height="15.1768" rx="7.58842" fill="#F9BC4A"/>
<rect opacity="0.74" x="320.271" y="334.026" width="260.679" height="15.1769" rx="7.58844" fill="#79D362"/>
<rect x="320.271" y="174.153" width="266.445" height="107.869" rx="8" fill="#D4EDED"/>
<g opacity="0.9">
<path d="M428.801 401.842C428.491 401.559 428.071 401.467 427.7 401.601L424.768 402.653C424.397 402.786 424.131 403.124 424.07 403.54L423.589 406.823C423.528 407.238 423.682 407.668 423.993 407.951L426.444 410.182C426.755 410.464 427.174 410.556 427.546 410.423L430.478 409.371C430.849 409.238 431.115 408.9 431.176 408.484L431.656 405.201C431.717 404.785 431.563 404.355 431.253 404.073L428.801 401.842Z" fill="#FF6767"/>
<path d="M448.101 400.821C448.091 400.384 447.876 399.985 447.537 399.776L444.859 398.117C444.519 397.907 444.108 397.918 443.778 398.145L441.176 399.939C440.847 400.166 440.65 400.575 440.66 401.012L440.736 404.465C440.746 404.902 440.961 405.3 441.3 405.51L443.979 407.169C444.318 407.379 444.73 407.368 445.059 407.141L447.661 405.347C447.99 405.12 448.187 404.711 448.178 404.274L448.101 400.821Z" fill="#F9BC4A"/>
<path d="M410.767 395.934C410.36 395.934 409.984 396.155 409.781 396.515L408.175 399.354C407.972 399.714 407.972 400.157 408.175 400.516L409.781 403.356C409.984 403.716 410.36 403.937 410.767 403.937L413.979 403.937C414.385 403.937 414.761 403.716 414.964 403.356L416.57 400.516C416.773 400.157 416.773 399.714 416.57 399.354L414.964 396.515C414.761 396.155 414.385 395.934 413.979 395.934L410.767 395.934Z" fill="#6398FF"/>
</g>
</g>
<defs>
<filter id="filter0_d" x="146" y="43" width="348.53" height="392.903" filterUnits="userSpaceOnUse" color-interpolation-filters="sRGB">
<feFlood flood-opacity="0" result="BackgroundImageFix"/>
<feColorMatrix in="SourceAlpha" type="matrix" values="0 0 0 0 0 0 0 0 0 0 0 0 0 0 0 0 0 0 127 0"/>
<feOffset dy="7"/>
<feGaussianBlur stdDeviation="8"/>
<feColorMatrix type="matrix" values="0 0 0 0 0.187778 0 0 0 0 0.203099 0 0 0 0 0.270833 0 0 0 0.1 0"/>
<feBlend mode="normal" in2="BackgroundImageFix" result="effect1_dropShadow"/>
<feBlend mode="normal" in="SourceGraphic" in2="effect1_dropShadow" result="shape"/>
</filter>
<filter id="filter1_d" x="279.12" y="109.067" width="348.53" height="391.917" filterUnits="userSpaceOnUse" color-interpolation-filters="sRGB">
<feFlood flood-opacity="0" result="BackgroundImageFix"/>
<feColorMatrix in="SourceAlpha" type="matrix" values="0 0 0 0 0 0 0 0 0 0 0 0 0 0 0 0 0 0 127 0"/>
<feOffset dy="7"/>
<feGaussianBlur stdDeviation="8"/>
<feColorMatrix type="matrix" values="0 0 0 0 0.187778 0 0 0 0 0.203099 0 0 0 0 0.270833 0 0 0 0.1 0"/>
<feBlend mode="normal" in2="BackgroundImageFix" result="effect1_dropShadow"/>
<feBlend mode="normal" in="SourceGraphic" in2="effect1_dropShadow" result="shape"/>
</filter>
<linearGradient id="paint0_linear" x1="317.316" y1="232.254" x2="317.316" y2="384.758" gradientUnits="userSpaceOnUse">
<stop offset="0.324459" stop-color="#777777"/>
<stop offset="0.9507" stop-color="#777777" stop-opacity="0"/>
</linearGradient>
</defs>
</svg>
