<svg width="35" height="27" viewBox="0 0 35 27" fill="none" xmlns="http://www.w3.org/2000/svg">
<path opacity="0.95" d="M29.135 2.60638C26.9787 1.59749 24.673 0.864277 22.2626 0.446777C21.9665 0.981997 21.6207 1.70188 21.3822 2.27454C18.8198 1.88919 16.281 1.88919 13.7657 2.27454C13.5273 1.70188 13.1736 0.981997 12.8749 0.446777C10.4619 0.864277 8.15357 1.60019 5.99726 2.61172C1.64796 9.18408 0.468937 15.5932 1.05845 21.9113C3.94314 24.0655 6.73874 25.3741 9.48717 26.2305C10.1658 25.2965 10.771 24.3037 11.2924 23.2574C10.2994 22.8801 9.34831 22.4144 8.44965 21.8739C8.68806 21.6972 8.92127 21.5126 9.14657 21.3226C14.6277 23.8862 20.5831 23.8862 25.9988 21.3226C26.2267 21.5126 26.4599 21.6972 26.6957 21.8739C25.7944 22.4171 24.8407 22.8827 23.8477 23.2601C24.3691 24.3037 24.9717 25.2992 25.6529 26.2331C28.404 25.3768 31.2022 24.0682 34.0869 21.9113C34.7786 14.587 32.9053 8.23675 29.135 2.60638ZM12.0391 18.0257C10.3937 18.0257 9.04437 16.4897 9.04437 14.6191C9.04437 12.7486 10.3649 11.2098 12.0391 11.2098C13.7134 11.2098 15.0627 12.7459 15.0338 14.6191C15.0364 16.4897 13.7134 18.0257 12.0391 18.0257ZM23.1062 18.0257C21.4609 18.0257 20.1115 16.4897 20.1115 14.6191C20.1115 12.7486 21.432 11.2098 23.1062 11.2098C24.7804 11.2098 26.1298 12.7459 26.101 14.6191C26.101 16.4897 24.7804 18.0257 23.1062 18.0257Z" fill="white"/>
</svg>
