<svg width="25" height="26" viewBox="0 0 25 26" fill="none" xmlns="http://www.w3.org/2000/svg">
<g opacity="0.95">
<path fill-rule="evenodd" clip-rule="evenodd" d="M7.86377 0.446777H17.1655C21.4459 0.446777 24.917 3.91788 24.917 8.19824V17.5C24.917 21.7804 21.4459 25.2515 17.1655 25.2515H7.86377C3.58341 25.2515 0.112305 21.7804 0.112305 17.5V8.19824C0.112305 3.91788 3.58341 0.446777 7.86377 0.446777ZM17.1656 22.926C20.1577 22.926 22.5917 20.4921 22.5917 17.5V8.19824C22.5917 5.20618 20.1577 2.77222 17.1656 2.77222H7.86388C4.87182 2.77222 2.43786 5.20618 2.43786 8.19824V17.5C2.43786 20.4921 4.87182 22.926 7.86388 22.926H17.1656Z" fill="white"/>
<path fill-rule="evenodd" clip-rule="evenodd" d="M6.31348 12.8491C6.31348 9.42452 9.09005 6.64795 12.5146 6.64795C15.9392 6.64795 18.7158 9.42452 18.7158 12.8491C18.7158 16.2737 15.9392 19.0503 12.5146 19.0503C9.09005 19.0503 6.31348 16.2737 6.31348 12.8491ZM8.63903 12.8491C8.63903 14.9854 10.3785 16.7249 12.5148 16.7249C14.6511 16.7249 16.3905 14.9854 16.3905 12.8491C16.3905 10.7113 14.6511 8.97339 12.5148 8.97339C10.3785 8.97339 8.63903 10.7113 8.63903 12.8491Z" fill="white"/>
<circle cx="19.181" cy="6.18275" r="0.826306" fill="white"/>
</g>
</svg>
