<svg width="32" height="26" viewBox="0 0 32 26" fill="none" xmlns="http://www.w3.org/2000/svg">
<g opacity="0.95">
<path d="M31.1122 3.36288C29.9848 3.85742 28.7835 4.18522 27.5311 4.34439C28.8195 3.5751 29.8029 2.36621 30.2653 0.909109C29.064 1.62534 27.7376 2.13126 26.3241 2.41358C25.1834 1.19901 23.5577 0.446777 21.7841 0.446777C18.3432 0.446777 15.573 3.23972 15.573 6.66362C15.573 7.15627 15.6147 7.62997 15.717 8.08094C10.5499 7.82893 5.97769 5.35242 2.90622 1.57987C2.36999 2.51022 2.05545 3.5751 2.05545 4.72145C2.05545 6.87395 3.16391 8.78201 4.81618 9.88668C3.81762 9.86774 2.83801 9.57783 2.00808 9.12118C2.00808 9.14013 2.00808 9.16476 2.00808 9.1894C2.00808 12.2097 4.16247 14.7184 6.98762 15.2963C6.48171 15.4347 5.93033 15.501 5.35809 15.501C4.96019 15.501 4.55849 15.4782 4.18142 15.3949C4.98671 17.8562 7.27184 19.6658 9.98899 19.7245C7.87439 21.3787 5.18946 22.3753 2.28283 22.3753C1.77313 22.3753 1.28427 22.3526 0.79541 22.2901C3.54856 24.0655 6.81141 25.0792 10.3301 25.0792C21.7671 25.0792 28.0199 15.6052 28.0199 7.39312C28.0199 7.11838 28.0105 6.8531 27.9972 6.58973C29.2307 5.71433 30.2672 4.62103 31.1122 3.36288Z" fill="white"/>
</g>
</svg>
