<svg width="112" height="33" viewBox="0 0 112 33" fill="none" xmlns="http://www.w3.org/2000/svg">
<path d="M62.3089 22.1701V26.1198H48.6221V6.64551H62.0621V10.5952H53.1204V14.3804H60.8004V18.0284H53.1204V22.1701H62.3089Z" fill="#333333"/>
<path d="M78.8115 26.1198H74.4229V18.0284C74.4229 17.0775 74.2401 16.3918 73.8744 15.9712C73.5269 15.5324 73.0606 15.3129 72.4755 15.3129C71.8721 15.3129 71.2595 15.5507 70.6378 16.0261C70.0161 16.5015 69.5772 17.1141 69.3212 17.8638V26.1198H64.9326V11.7198H68.8824V14.1335C69.4126 13.2924 70.1624 12.6341 71.1315 12.1587C72.1006 11.6832 73.2161 11.4455 74.4778 11.4455C75.4104 11.4455 76.1601 11.6192 76.7269 11.9667C77.3121 12.2958 77.7509 12.7347 78.0435 13.2832C78.3544 13.8135 78.5555 14.3987 78.6469 15.0387C78.7566 15.6787 78.8115 16.3004 78.8115 16.9038V26.1198Z" fill="#333333"/>
<path d="M88.8861 26.3941C87.277 26.3941 85.8873 26.0467 84.717 25.3518C83.565 24.6569 82.6781 23.7427 82.0564 22.6089C81.453 21.4752 81.1513 20.2409 81.1513 18.9061C81.1513 17.5895 81.453 16.3644 82.0564 15.2307C82.6781 14.0969 83.565 13.1827 84.717 12.4878C85.869 11.7929 87.2587 11.4455 88.8861 11.4455C90.5319 11.4455 91.9216 11.8021 93.0553 12.5152C94.2073 13.2101 95.0667 14.1244 95.6336 15.2581L91.3547 16.5472C90.7879 15.6329 89.9559 15.1758 88.8587 15.1758C87.9627 15.1758 87.2039 15.5141 86.5821 16.1907C85.9604 16.8672 85.6496 17.7724 85.6496 18.9061C85.6496 20.0398 85.9604 20.9541 86.5821 21.6489C87.2039 22.3438 87.9627 22.6912 88.8587 22.6912C89.4073 22.6912 89.9101 22.5632 90.3673 22.3072C90.8244 22.0329 91.1627 21.6855 91.3821 21.2649L95.661 22.5815C95.1307 23.6969 94.2804 24.6112 93.1101 25.3244C91.9581 26.0375 90.5501 26.3941 88.8861 26.3941Z" fill="#333333"/>
<path d="M97.7338 28.2867C98.4835 28.5244 99.1144 28.6432 99.6264 28.6432C100.138 28.6432 100.541 28.4604 100.833 28.0947C101.144 27.7289 101.418 27.0707 101.656 26.1198L96.1704 11.7198H100.696L104.042 21.6215L106.895 11.7198H111.037L105.551 28.4512C105.167 29.6398 104.472 30.5998 103.466 31.3312C102.479 32.0809 101.318 32.4558 99.9829 32.4558C99.2149 32.4558 98.4652 32.3187 97.7338 32.0444V28.2867Z" fill="#333333"/>
<g clip-path="url(#clip0)">
<mask id="mask0" mask-type="alpha" maskUnits="userSpaceOnUse" x="0" y="1" width="36" height="32">
<path d="M7.18828 3.44018C8.01294 2.01763 9.53697 1.14131 11.1863 1.14131L24.2138 1.14131C25.8631 1.14131 27.3872 2.01763 28.2118 3.44018L34.7256 14.6765C35.5503 16.099 35.5503 17.8517 34.7256 19.2742L28.2118 30.5106C27.3872 31.9331 25.8632 32.8094 24.2138 32.8094L11.1863 32.8094C9.53698 32.8094 8.01294 31.9331 7.18828 30.5106L0.674514 19.2742C-0.150146 17.8517 -0.150146 16.099 0.674513 14.6765L7.18828 3.44018Z" fill="#4B5EB2"/>
</mask>
<g mask="url(#mask0)">
<path d="M-4.56348 17.1128H17.7148V39.3005H-4.56348V17.1128Z" fill="#7DE064"/>
<path d="M17.7002 -5.07471H39.9785V17.1131H17.7002V-5.07471Z" fill="#F9BC4A"/>
<path fill-rule="evenodd" clip-rule="evenodd" d="M39.9926 17.1128H17.7143V23.8342L12.6006 32.7485H17.7143V39.3006H39.9926V17.1128Z" fill="#FF6767"/>
<path fill-rule="evenodd" clip-rule="evenodd" d="M17.7002 -5.07471H-4.57812V17.1131H17.7002V10.0943L17.7149 10.1199L22.8286 1.20565L17.7002 1.20565V-5.07471Z" fill="#6398FF"/>
</g>
<path d="M24.3983 16.9763C24.3983 20.6676 21.406 23.6601 17.7148 23.6601C14.0236 23.6601 11.0312 20.6676 11.0312 16.9763C11.0312 13.2849 14.0236 10.2925 17.7148 10.2925C21.406 10.2925 24.3983 13.2849 24.3983 16.9763Z" fill="white"/>
</g>
<defs>
<clipPath id="clip0">
<rect width="35.4286" height="32" fill="white" transform="translate(0 0.977051)"/>
</clipPath>
</defs>
</svg>
