<svg width="752" height="830" viewBox="0 0 752 830" fill="none" xmlns="http://www.w3.org/2000/svg">
<path d="M935.089 75.6061L616.645 164.743L598.652 85.0437L894.989 -6.82049L935.089 75.6061Z" fill="#675DD9"/>
<g style="mix-blend-mode:multiply" opacity="0.17">
<path d="M908.083 83.8426L651.923 154.68C651.923 154.68 662.966 142.227 666.96 133.298C666.96 133.298 896.685 67.6344 897.584 69.3933C900.303 74.7139 908.083 83.8426 908.083 83.8426Z" fill="#505050"/>
</g>
<path d="M514.623 421.182L510.44 385.21L473.726 367.056L459.857 392.883L514.623 421.182Z" fill="#F9BC4A"/>
<path d="M478.223 369.24L468.69 328.107L423.822 307.809L378.723 335.707L394.843 345.798L424.612 327.736L450.028 340.322L457.852 362.53L449.468 380.413L427.212 393.305L397.595 380.413L392.904 359.689L374.005 347.633L382.974 392.828L429.621 414.3L465.94 395.485L478.223 369.24Z" fill="#263238"/>
<path d="M529.804 369.898L568.337 229.841L595.885 242.544L562.401 379.057L529.804 369.898Z" fill="#F9BC4A"/>
<path d="M643.523 149.349L612.736 250.894L549.854 230.423L582.792 113.892L643.523 149.349Z" fill="#675DD9"/>
<g style="mix-blend-mode:multiply" opacity="0.39">
<path d="M568.11 235.916L598.442 134.114L578.785 129.219L549.625 230.478L568.11 235.916Z" fill="#505050"/>
</g>
<g style="mix-blend-mode:multiply" opacity="0.17">
<path d="M536.756 368.743L574.807 237.54L566.757 234.477L530.594 367.103L536.756 368.743Z" fill="#505050"/>
</g>
<path d="M498.273 401.726L530.476 299.38L593.043 315.769L559.684 420.178L498.273 401.726Z" fill="#675DD9"/>
<g style="mix-blend-mode:multiply" opacity="0.34">
<path d="M516.698 408.426L546.877 303.364L530.532 298.653L497.603 402.209L516.698 408.426Z" fill="#505050"/>
</g>
<path d="M499.623 391.458C501.728 385.041 505.689 379.392 511.004 375.225C516.319 371.058 522.751 368.561 529.485 368.049C536.219 367.537 542.954 369.033 548.838 372.348C554.723 375.664 559.492 380.649 562.542 386.675C565.593 392.7 566.789 399.495 565.979 406.2C565.168 412.905 562.388 419.219 557.989 424.344C553.59 429.469 547.771 433.175 541.266 434.993C534.762 436.811 527.864 436.659 521.446 434.558C512.838 431.734 505.704 425.608 501.612 417.526C497.52 409.444 496.805 400.068 499.623 391.458Z" fill="#263238"/>
<path d="M519.75 398.053C520.549 395.613 522.054 393.464 524.075 391.879C526.096 390.294 528.541 389.344 531.102 389.149C533.662 388.953 536.223 389.522 538.461 390.783C540.698 392.043 542.512 393.939 543.672 396.23C544.832 398.521 545.286 401.105 544.978 403.654C544.669 406.204 543.611 408.605 541.938 410.553C540.265 412.501 538.052 413.91 535.578 414.6C533.105 415.29 530.482 415.232 528.042 414.431C526.421 413.902 524.92 413.058 523.626 411.948C522.331 410.838 521.268 409.484 520.498 407.962C519.728 406.441 519.265 404.783 519.137 403.082C519.009 401.382 519.217 399.673 519.75 398.053Z" fill="#F3F3F3"/>
<path opacity="0.4" d="M664.937 137.138C656.729 156.979 633.991 166.409 614.151 158.201C594.31 149.992 584.88 127.254 593.088 107.414C601.296 87.573 624.034 78.143 643.875 86.3512C663.716 94.5594 673.146 117.297 664.937 137.138Z" fill="#333333"/>
<path d="M639.116 151.274C619.992 162.313 595.54 155.759 584.501 136.635C573.462 117.511 580.016 93.0586 599.14 82.0195C618.264 70.9804 642.717 77.5347 653.756 96.6589C664.795 115.783 658.24 140.235 639.116 151.274Z" fill="#263238"/>
<path d="M623.074 101.959C625.98 102.737 628.59 104.36 630.573 106.621C632.557 108.882 633.826 111.681 634.219 114.663C634.612 117.645 634.113 120.677 632.783 123.375C631.453 126.074 629.354 128.317 626.749 129.822C624.145 131.327 621.152 132.026 618.151 131.83C615.149 131.635 612.273 130.554 609.885 128.724C607.498 126.894 605.707 124.397 604.738 121.549C603.77 118.701 603.668 115.63 604.444 112.724C604.958 110.793 605.848 108.981 607.063 107.394C608.278 105.807 609.795 104.475 611.525 103.475C613.256 102.475 615.167 101.827 617.149 101.566C619.131 101.306 621.144 101.44 623.074 101.959Z" fill="#F3F3F3"/>
<g filter="url(#filter0_d)">
<rect width="141.623" height="13.283" rx="6.64151" transform="matrix(0.841918 0.539612 -0.539827 0.841772 289.593 278.135)" fill="#79D362"/>
</g>
<defs>
<filter id="filter0_d" x="258.956" y="260.668" width="173.338" height="134.537" filterUnits="userSpaceOnUse" color-interpolation-filters="sRGB">
<feFlood flood-opacity="0" result="BackgroundImageFix"/>
<feColorMatrix in="SourceAlpha" type="matrix" values="0 0 0 0 0 0 0 0 0 0 0 0 0 0 0 0 0 0 127 0"/>
<feOffset dy="6"/>
<feGaussianBlur stdDeviation="13"/>
<feColorMatrix type="matrix" values="0 0 0 0 0.470833 0 0 0 0 0.470833 0 0 0 0 0.470833 0 0 0 0.14 0"/>
<feBlend mode="normal" in2="BackgroundImageFix" result="effect1_dropShadow"/>
<feBlend mode="normal" in="SourceGraphic" in2="effect1_dropShadow" result="shape"/>
</filter>
</defs>
</svg>
