<svg width="752" height="830" viewBox="0 0 752 830" fill="none" xmlns="http://www.w3.org/2000/svg">
<path d="M894.229 745.379L691.552 500.169L621.803 549.681L804.751 795.963L894.229 745.379Z" fill="#E25C5C"/>
<path d="M426.981 474.065L571.281 520.211L576.031 485.808L437.725 436.865L426.981 474.065Z" fill="#F9BC4A"/>
<path d="M661.346 490.266L547.099 458.36L528.674 529.95L658.346 568.808L661.346 490.266Z" fill="#FF6767"/>
<g style="mix-blend-mode:multiply" opacity="0.17">
<path d="M534.573 508.194L429.958 474.88L433.603 463.683L536.449 498.817L534.573 508.194Z" fill="#505050"/>
</g>
<path opacity="0.4" d="M662.676 496.778C686.18 494.296 707.273 511.579 709.787 535.381C712.301 559.183 695.285 580.491 671.78 582.974C648.276 585.457 627.184 568.174 624.669 544.371C622.155 520.569 639.171 499.261 662.676 496.778Z" fill="#333333"/>
<path d="M706.554 561.564C711.848 554.484 714.923 545.994 715.391 537.167C715.859 528.34 713.699 519.572 709.184 511.972C704.669 504.372 698.002 498.282 690.025 494.472C682.049 490.661 673.122 489.302 664.373 490.565C655.624 491.828 647.446 495.657 640.874 501.568C634.301 507.479 629.629 515.206 627.448 523.773C625.267 532.339 625.675 541.36 628.621 549.694C631.566 558.029 636.917 565.303 643.997 570.596C653.491 577.693 665.415 580.729 677.146 579.036C688.878 577.342 699.456 571.057 706.554 561.564Z" fill="#333333"/>
<path d="M683.861 547.355C685.813 544.667 686.928 541.463 687.067 538.144C687.206 534.826 686.362 531.54 684.642 528.698C682.922 525.857 680.401 523.587 677.396 522.172C674.391 520.757 671.035 520.26 667.749 520.744C664.462 521.228 661.392 522.671 658.922 524.892C656.453 527.113 654.694 530.014 653.865 533.231C653.037 536.447 653.177 539.837 654.266 542.975C655.356 546.112 657.348 548.859 659.991 550.87C661.78 552.23 663.823 553.22 665.999 553.78C668.176 554.341 670.442 554.461 672.666 554.133C674.889 553.806 677.025 553.037 678.947 551.873C680.87 550.709 682.54 549.173 683.861 547.355Z" fill="#F3F3F3"/>
<path d="M309.895 457.048L424.616 492.054L449.037 424L330.052 386.947L309.895 457.048Z" fill="#FF6767"/>
<g style="mix-blend-mode:multiply" opacity="0.17">
<path d="M424.075 492.969L307.846 455.438L311.301 444.259L428.903 480.881L424.075 492.969Z" fill="#505050"/>
</g>
<g style="mix-blend-mode:multiply" opacity="0.17">
<path d="M629.514 560.113L528.453 529.398L531.908 518.22C531.908 518.22 625.731 543.29 625.277 544.908C623.901 549.801 629.514 560.113 629.514 560.113Z" fill="#505050"/>
</g>
<path opacity="0.4" d="M366.206 412.666C372.786 431.239 363.064 451.63 344.491 458.21C325.918 464.791 305.527 455.069 298.946 436.496C292.366 417.923 302.088 397.532 320.661 390.951C339.234 384.371 359.625 394.093 366.206 412.666Z" fill="#333333"/>
<path d="M353.032 405.234C361.512 424.543 352.734 447.071 333.424 455.55C314.115 464.03 291.588 455.252 283.108 435.943C274.628 416.634 283.407 394.106 302.716 385.626C322.025 377.146 344.552 385.925 353.032 405.234Z" fill="#333333"/>
<path d="M313.817 434.502C316.553 435.323 319.471 435.315 322.203 434.479C324.934 433.644 327.357 432.019 329.167 429.808C330.976 427.598 332.09 424.901 332.368 422.058C332.647 419.215 332.077 416.353 330.732 413.834C329.386 411.314 327.324 409.249 324.807 407.9C322.289 406.55 319.428 405.976 316.585 406.25C313.742 406.525 311.043 407.635 308.83 409.44C306.616 411.246 304.987 413.667 304.148 416.397C303.587 418.221 303.393 420.137 303.576 422.036C303.759 423.935 304.316 425.779 305.215 427.462C306.113 429.144 307.336 430.633 308.813 431.841C310.289 433.049 311.99 433.954 313.817 434.502Z" fill="#F3F3F3"/>
<path d="M240.889 398.457L239.65 402.867L212.983 395.378L214.222 390.968L240.889 398.457Z" fill="#333333"/>
<path d="M288.56 432.541L272.875 428.148L270.639 436.132L264.61 434.439L267.515 423.98L256.517 420.898L257.981 415.669L263.761 395.039L274.759 398.121L277.532 388.23L282.902 389.733L281.131 396.044L297.499 400.63L288.56 432.541Z" fill="#333333"/>
<path d="M258.342 414.553L233.323 407.527L237.958 391.025L262.977 398.052L258.342 414.553Z" fill="#505050"/>
<g style="mix-blend-mode:multiply" opacity="0.17">
<path d="M779.683 761.22L635.977 569.12C634.52 567.431 633.861 566.292 633.861 566.292L635.977 569.12C639.714 573.454 648.697 581.407 665.238 583.004C666.911 583.166 784.509 752.541 784.509 752.541L779.683 761.22Z" fill="#505050"/>
</g>
</svg>
