<svg width="280" height="255" viewBox="0 0 280 255" fill="none" xmlns="http://www.w3.org/2000/svg">
<g clip-path="url(#clip0)">
<rect x="0.956482" y="0.569336" width="279" height="254" rx="8" fill="#675DD9"/>
<path opacity="0.19" d="M92.818 309.722L53.2677 190.156L217.774 43.9594L226.609 56.4887L230.625 54.2427L240.103 60.9344L327.034 220.237L250.464 311.749L92.818 309.722Z" fill="#505050"/>
<rect width="129.601" height="163.37" rx="8" transform="matrix(0.965963 0.258681 -0.258957 0.965889 93.9987 38.3853)" fill="white"/>
<rect opacity="0.81" width="82.0986" height="4.67703" rx="2.33852" transform="matrix(0.965963 0.258681 -0.258957 0.965889 111.455 64.9951)" fill="#B34DF1"/>
<rect opacity="0.65" width="82.0986" height="4.67703" rx="2.33852" transform="matrix(0.965963 0.258681 -0.258957 0.965889 90.4703 143.264)" fill="#FF6767"/>
<rect opacity="0.65" width="82.0986" height="4.67703" rx="2.33852" transform="matrix(0.965963 0.258681 -0.258957 0.965889 87.5476 154.164)" fill="#7DE064"/>
<rect opacity="0.65" width="82.0986" height="4.67703" rx="2.33851" transform="matrix(0.965963 0.258682 -0.258957 0.965889 84.6259 165.062)" fill="#F9BC4A"/>
<rect opacity="0.38" width="80.9525" height="51.5538" rx="4" transform="matrix(0.965963 0.258681 -0.258957 0.965889 107.89 78.2885)" fill="#6398FF"/>
<g clip-path="url(#clip1)">
<mask id="mask0" mask-type="alpha" maskUnits="userSpaceOnUse" x="165" y="28" width="54" height="58">
<path d="M194.542 84.4501C192.141 85.6196 189.276 85.4181 187.027 83.9215L169.26 72.0999C167.011 70.6033 165.718 68.0389 165.87 65.3727L167.066 44.3133C167.217 41.6471 168.79 39.2842 171.19 38.1147L190.153 28.8769C192.554 27.7073 195.419 27.9088 197.668 29.4055L215.435 41.2271C217.684 42.7237 218.976 45.2881 218.825 47.9543L217.629 69.0137C217.477 71.6798 215.905 74.0427 213.504 75.2123L194.542 84.4501Z" fill="#4B5EB2"/>
</mask>
<g mask="url(#mask0)">
<path d="M222.834 76.6813L192.451 56.4653L212.354 26.5522L242.737 46.7681L222.834 76.6813Z" fill="#FF6767"/>
<path d="M172.567 86.3907L142.184 66.1747L162.087 36.2615L192.47 56.4775L172.567 86.3907Z" fill="#FF6767"/>
<path fill-rule="evenodd" clip-rule="evenodd" d="M162.068 36.2493L192.451 56.4653L198.48 47.4035L213.451 40.0258L206.477 35.3855L212.354 26.5521L181.971 6.33612L162.068 36.2493Z" fill="#FF6767"/>
<path fill-rule="evenodd" clip-rule="evenodd" d="M172.567 86.3913L202.95 106.607L222.854 76.6941L192.471 56.4781L186.175 65.9406L186.178 65.8928L171.207 73.2706L178.201 77.9242L172.567 86.3913Z" fill="#FF6767"/>
</g>
<path d="M183.213 50.5845C186.524 45.6079 193.29 44.2888 198.324 47.6383C203.358 50.9878 204.754 57.7375 201.443 62.7141C198.131 67.6907 191.366 69.0098 186.332 65.6603C181.298 62.3108 179.902 55.5611 183.213 50.5845Z" fill="white"/>
</g>
<g clip-path="url(#clip2)">
<mask id="mask1" mask-type="alpha" maskUnits="userSpaceOnUse" x="219" y="54" width="22" height="25">
<path d="M221.337 73.5534C220.42 72.9957 219.855 71.9649 219.855 70.8494L219.855 62.0386C219.855 60.9231 220.42 59.8924 221.337 59.3346L228.582 54.9292C229.5 54.3714 230.63 54.3714 231.547 54.9292L238.792 59.3346C239.709 59.8924 240.274 60.9231 240.274 62.0386L240.274 70.8494C240.274 71.9649 239.709 72.9957 238.792 73.5534L231.547 77.9588C230.63 78.5166 229.5 78.5166 228.582 77.9588L221.337 73.5534Z" fill="#4B5EB2"/>
</mask>
<g mask="url(#mask1)">
<path d="M230.153 81.5017L230.153 66.4343L244.46 66.4343L244.46 81.5017L230.153 81.5017Z" fill="#F9BC4A"/>
<path d="M215.847 66.4437L215.847 51.3763L230.153 51.3763L230.153 66.4437L215.847 66.4437Z" fill="#F9BC4A"/>
<path fill-rule="evenodd" clip-rule="evenodd" d="M230.153 51.3668L230.153 66.4342L234.487 66.4342L240.235 69.8927L240.235 66.4342L244.46 66.4342L244.46 51.3668L230.153 51.3668Z" fill="#F9BC4A"/>
<path fill-rule="evenodd" clip-rule="evenodd" d="M215.847 66.4441L215.847 81.5115L230.153 81.5115L230.153 66.4441L225.628 66.4441L225.644 66.4341L219.896 62.9756L219.896 66.4441L215.847 66.4441Z" fill="#F9BC4A"/>
</g>
<path d="M230.065 61.9138C232.445 61.9138 234.375 63.9376 234.375 66.4341C234.375 68.9305 232.445 70.9543 230.065 70.9543C227.685 70.9543 225.755 68.9305 225.755 66.4341C225.755 63.9376 227.685 61.9138 230.065 61.9138Z" fill="white"/>
</g>
<g clip-path="url(#clip3)">
<mask id="mask2" mask-type="alpha" maskUnits="userSpaceOnUse" x="142" y="42" width="22" height="26">
<path d="M143.798 61.7709C142.891 61.1404 142.376 60.0463 142.446 58.9008L143.001 49.8531C143.072 48.7076 143.717 47.6848 144.694 47.1698L152.411 43.1026C153.388 42.5877 154.549 42.6589 155.456 43.2894L162.618 48.2699C163.525 48.9005 164.04 49.9945 163.97 51.14L163.414 60.1878C163.344 61.3332 162.699 62.3561 161.722 62.871L154.004 66.9383C153.027 67.4532 151.867 67.382 150.96 66.7514L143.798 61.7709Z" fill="#4B5EB2"/>
</mask>
<g mask="url(#mask2)">
<path d="M152.35 70.4885L153.299 55.016L167.99 55.9177L167.041 71.3902L152.35 70.4885Z" fill="#6398FF"/>
<path d="M138.608 54.1241L139.557 38.6515L154.249 39.5532L153.299 55.0257L138.608 54.1241Z" fill="#6398FF"/>
<path fill-rule="evenodd" clip-rule="evenodd" d="M154.249 39.5435L153.299 55.016L157.75 55.2891L163.434 59.2029L163.652 55.6514L167.99 55.9177L168.94 40.4451L154.249 39.5435Z" fill="#6398FF"/>
<path fill-rule="evenodd" clip-rule="evenodd" d="M138.608 54.1244L137.658 69.5969L152.349 70.4986L153.299 55.0261L148.652 54.7408L148.669 54.7317L142.985 50.8179L142.766 54.3796L138.608 54.1244Z" fill="#6398FF"/>
</g>
<path d="M153.494 50.3685C155.938 50.5185 157.792 52.7183 157.634 55.2818C157.477 57.8454 155.368 59.802 152.924 59.652C150.48 59.502 148.626 57.3022 148.783 54.7386C148.941 52.175 151.05 50.2185 153.494 50.3685Z" fill="white"/>
</g>
<g clip-path="url(#clip4)">
<mask id="mask3" mask-type="alpha" maskUnits="userSpaceOnUse" x="199" y="75" width="38" height="42">
<path d="M233.785 85.0563C235.315 86.1195 236.176 87.9474 236.044 89.8514L234.997 104.891C234.864 106.795 233.758 108.486 232.095 109.327L218.962 115.969C217.299 116.81 215.332 116.673 213.802 115.61L201.715 107.213C200.184 106.149 199.323 104.321 199.456 102.417L200.503 87.3776C200.635 85.4735 201.741 83.7825 203.404 82.9416L216.538 76.2994C218.201 75.4585 220.168 75.5954 221.698 76.6586L233.785 85.0563Z" fill="#4B5EB2"/>
</mask>
<g mask="url(#mask3)">
<path d="M219.385 70.4207L217.594 96.1403L192.693 94.407L194.484 68.6874L219.385 70.4207Z" fill="#7DE064"/>
<path d="M242.496 97.8575L240.706 123.577L215.805 121.844L217.595 96.1242L242.496 97.8575Z" fill="#7DE064"/>
<path fill-rule="evenodd" clip-rule="evenodd" d="M215.804 121.86L217.594 96.1403L210.051 95.6153L200.458 89.0153L200.047 94.9189L192.694 94.407L190.903 120.127L215.804 121.86Z" fill="#7DE064"/>
<path fill-rule="evenodd" clip-rule="evenodd" d="M242.496 97.8568L244.287 72.1373L219.386 70.404L217.595 96.1235L225.472 96.6718L225.442 96.6868L235.036 103.287L235.448 97.3662L242.496 97.8568Z" fill="#7DE064"/>
</g>
<path d="M217.211 103.867C213.068 103.579 209.95 99.8905 210.247 95.6292C210.543 91.3678 214.142 88.1471 218.285 88.4354C222.428 88.7238 225.546 92.4121 225.249 96.6734C224.952 100.935 221.354 104.156 217.211 103.867Z" fill="white"/>
</g>
<g clip-path="url(#clip5)">
<mask id="mask4" mask-type="alpha" maskUnits="userSpaceOnUse" x="165" y="28" width="54" height="58">
<path d="M194.542 84.4501C192.141 85.6196 189.276 85.4181 187.027 83.9215L169.26 72.0999C167.011 70.6033 165.719 68.0389 165.87 65.3727L167.066 44.3133C167.217 41.6472 168.79 39.2843 171.19 38.1147L190.153 28.8769C192.554 27.7074 195.419 27.9089 197.668 29.4055L215.435 41.2271C217.684 42.7237 218.976 45.2881 218.825 47.9543L217.629 69.0137C217.477 71.6799 215.905 74.0428 213.504 75.2123L194.542 84.4501Z" fill="#4B5EB2"/>
</mask>
<g mask="url(#mask4)">
<path d="M222.834 76.6813L192.451 56.4653L212.355 26.5522L242.737 46.7682L222.834 76.6813Z" fill="#FF6767"/>
<path d="M172.567 86.3907L142.184 66.1747L162.087 36.2615L192.47 56.4775L172.567 86.3907Z" fill="#FF6767"/>
<path fill-rule="evenodd" clip-rule="evenodd" d="M162.068 36.2493L192.451 56.4653L198.48 47.4036L213.451 40.0258L206.477 35.3855L212.354 26.5521L181.972 6.33615L162.068 36.2493Z" fill="#FF6767"/>
<path fill-rule="evenodd" clip-rule="evenodd" d="M172.568 86.3913L202.95 106.607L222.854 76.6941L192.471 56.4782L186.175 65.9407L186.178 65.8928L171.207 73.2706L178.201 77.9242L172.568 86.3913Z" fill="#FF6767"/>
</g>
<path d="M183.213 50.5845C186.524 45.6079 193.29 44.2889 198.324 47.6384C203.358 50.9879 204.754 57.7375 201.443 62.7141C198.132 67.6908 191.366 69.0098 186.332 65.6603C181.298 62.3108 179.902 55.5612 183.213 50.5845Z" fill="white"/>
</g>
<g clip-path="url(#clip6)">
<mask id="mask5" mask-type="alpha" maskUnits="userSpaceOnUse" x="219" y="54" width="22" height="25">
<path d="M221.337 73.5534C220.42 72.9957 219.855 71.9649 219.855 70.8495L219.855 62.0386C219.855 60.9231 220.42 59.8924 221.337 59.3346L228.582 54.9292C229.5 54.3715 230.63 54.3715 231.547 54.9292L238.792 59.3346C239.709 59.8924 240.274 60.9231 240.274 62.0386L240.274 70.8495C240.274 71.9649 239.709 72.9957 238.792 73.5534L231.547 77.9589C230.63 78.5166 229.5 78.5166 228.582 77.9589L221.337 73.5534Z" fill="#4B5EB2"/>
</mask>
<g mask="url(#mask5)">
<path d="M230.153 81.5017L230.153 66.4343L244.46 66.4343L244.46 81.5017L230.153 81.5017Z" fill="#F9BC4A"/>
<path d="M215.847 66.4438L215.847 51.3764L230.153 51.3764L230.153 66.4438L215.847 66.4438Z" fill="#F9BC4A"/>
<path fill-rule="evenodd" clip-rule="evenodd" d="M230.153 51.3669L230.153 66.4343L234.487 66.4343L240.235 69.8928L240.235 66.4343L244.46 66.4343L244.46 51.3669L230.153 51.3669Z" fill="#F9BC4A"/>
<path fill-rule="evenodd" clip-rule="evenodd" d="M215.847 66.4441L215.847 81.5115L230.153 81.5115L230.153 66.4441L225.628 66.4441L225.644 66.4342L219.896 62.9756L219.896 66.4441L215.847 66.4441Z" fill="#F9BC4A"/>
</g>
<path d="M230.065 61.9139C232.445 61.9139 234.375 63.9376 234.375 66.4341C234.375 68.9305 232.445 70.9543 230.065 70.9543C227.685 70.9543 225.755 68.9305 225.755 66.4341C225.755 63.9376 227.685 61.9139 230.065 61.9139Z" fill="white"/>
</g>
<g clip-path="url(#clip7)">
<mask id="mask6" mask-type="alpha" maskUnits="userSpaceOnUse" x="142" y="42" width="22" height="26">
<path d="M143.798 61.7709C142.891 61.1404 142.376 60.0463 142.446 58.9009L143.001 49.8531C143.072 48.7076 143.717 47.6848 144.694 47.1699L152.411 43.1026C153.389 42.5877 154.549 42.6589 155.456 43.2895L162.618 48.27C163.525 48.9005 164.04 49.9946 163.97 51.14L163.414 60.1878C163.344 61.3333 162.699 62.3561 161.722 62.871L154.004 66.9383C153.027 67.4532 151.867 67.382 150.96 66.7514L143.798 61.7709Z" fill="#4B5EB2"/>
</mask>
<g mask="url(#mask6)">
<path d="M152.35 70.4885L153.299 55.016L167.991 55.9177L167.041 71.3902L152.35 70.4885Z" fill="#6398FF"/>
<path d="M138.608 54.1241L139.558 38.6516L154.249 39.5532L153.299 55.0258L138.608 54.1241Z" fill="#6398FF"/>
<path fill-rule="evenodd" clip-rule="evenodd" d="M154.249 39.5435L153.299 55.016L157.75 55.2892L163.434 59.2029L163.652 55.6514L167.991 55.9177L168.94 40.4452L154.249 39.5435Z" fill="#6398FF"/>
<path fill-rule="evenodd" clip-rule="evenodd" d="M138.608 54.1244L137.658 69.5969L152.349 70.4986L153.299 55.0261L148.652 54.7409L148.669 54.7317L142.985 50.8179L142.766 54.3796L138.608 54.1244Z" fill="#6398FF"/>
</g>
<path d="M153.494 50.3685C155.938 50.5185 157.792 52.7183 157.634 55.2819C157.477 57.8455 155.368 59.802 152.924 59.652C150.48 59.502 148.626 57.3022 148.783 54.7386C148.941 52.1751 151.05 50.2185 153.494 50.3685Z" fill="white"/>
</g>
<g clip-path="url(#clip8)">
<mask id="mask7" mask-type="alpha" maskUnits="userSpaceOnUse" x="199" y="75" width="38" height="42">
<path d="M233.785 85.0563C235.315 86.1195 236.176 87.9474 236.044 89.8515L234.997 104.891C234.864 106.795 233.758 108.486 232.095 109.327L218.962 115.969C217.299 116.81 215.332 116.673 213.802 115.61L201.715 107.213C200.185 106.149 199.324 104.321 199.456 102.417L200.503 87.3776C200.636 85.4735 201.741 83.7825 203.404 82.9416L216.538 76.2995C218.201 75.4586 220.168 75.5955 221.698 76.6586L233.785 85.0563Z" fill="#4B5EB2"/>
</mask>
<g mask="url(#mask7)">
<path d="M219.385 70.4208L217.595 96.1403L192.694 94.407L194.484 68.6875L219.385 70.4208Z" fill="#7DE064"/>
<path d="M242.496 97.8575L240.706 123.577L215.805 121.844L217.595 96.1242L242.496 97.8575Z" fill="#7DE064"/>
<path fill-rule="evenodd" clip-rule="evenodd" d="M215.804 121.86L217.595 96.1404L210.051 95.6153L200.458 89.0154L200.047 94.9189L192.694 94.4071L190.903 120.127L215.804 121.86Z" fill="#7DE064"/>
<path fill-rule="evenodd" clip-rule="evenodd" d="M242.496 97.8569L244.287 72.1373L219.386 70.404L217.595 96.1236L225.472 96.6719L225.443 96.6868L235.036 103.287L235.448 97.3662L242.496 97.8569Z" fill="#7DE064"/>
</g>
<path d="M217.211 103.867C213.068 103.579 209.95 99.8906 210.247 95.6292C210.543 91.3678 214.142 88.1471 218.285 88.4355C222.428 88.7238 225.546 92.4121 225.249 96.6735C224.952 100.935 221.354 104.156 217.211 103.867Z" fill="white"/>
</g>
</g>
<defs>
<clipPath id="clip0">
<rect x="0.956482" y="0.569336" width="279" height="254" rx="8" fill="white"/>
</clipPath>
<clipPath id="clip1">
<rect width="58.0352" height="51.8191" fill="white" transform="translate(202.135 94.2934) rotate(-146.361)"/>
</clipPath>
<clipPath id="clip2">
<rect width="23.9613" height="20.6333" fill="white" transform="translate(219.749 78.4148) rotate(-90)"/>
</clipPath>
<clipPath id="clip3">
<rect width="24.6518" height="21.2279" fill="white" transform="translate(141.86 66.6629) rotate(-86.4878)"/>
</clipPath>
<clipPath id="clip4">
<rect width="41" height="36" fill="white" transform="translate(237.127 76.9505) rotate(93.9818)"/>
</clipPath>
<clipPath id="clip5">
<rect width="58.0352" height="51.8191" fill="white" transform="translate(202.135 94.2935) rotate(-146.361)"/>
</clipPath>
<clipPath id="clip6">
<rect width="23.9613" height="20.6333" fill="white" transform="translate(219.749 78.4148) rotate(-90)"/>
</clipPath>
<clipPath id="clip7">
<rect width="24.6518" height="21.2279" fill="white" transform="translate(141.86 66.6629) rotate(-86.4878)"/>
</clipPath>
<clipPath id="clip8">
<rect width="41" height="36" fill="white" transform="translate(237.127 76.9505) rotate(93.9818)"/>
</clipPath>
</defs>
</svg>
