<svg width="475" height="243" viewBox="0 0 475 243" fill="none" xmlns="http://www.w3.org/2000/svg">
<g clip-path="url(#clip0)">
<rect x="0.956543" y="0.569336" width="474" height="242" rx="8" fill="#675DD9"/>
<path opacity="0.19" d="M189.818 303.722L150.268 184.156L314.774 37.9594L323.609 50.4888L327.625 48.2428L337.103 54.9344L475.13 265.332L347.464 305.749L189.818 303.722Z" fill="#505050"/>
<rect width="129.601" height="163.37" rx="8" transform="matrix(0.965963 0.258681 -0.258957 0.965889 190.999 32.3853)" fill="white"/>
<rect opacity="0.81" width="82.0986" height="4.67703" rx="2.33852" transform="matrix(0.965963 0.258681 -0.258957 0.965889 208.454 58.9951)" fill="#B34DF1"/>
<rect opacity="0.65" width="82.0986" height="4.67703" rx="2.33852" transform="matrix(0.965963 0.258681 -0.258957 0.965889 187.47 137.264)" fill="#FF6767"/>
<rect opacity="0.65" width="82.0986" height="4.67703" rx="2.33852" transform="matrix(0.965963 0.258681 -0.258957 0.965889 184.548 148.164)" fill="#7DE064"/>
<rect opacity="0.65" width="82.0986" height="4.67703" rx="2.33851" transform="matrix(0.965963 0.258682 -0.258957 0.965889 181.626 159.062)" fill="#F9BC4A"/>
<rect opacity="0.38" width="80.9525" height="51.5538" rx="4" transform="matrix(0.965963 0.258681 -0.258957 0.965889 204.89 72.2885)" fill="#6398FF"/>
<g clip-path="url(#clip1)">
<mask id="mask0" mask-type="alpha" maskUnits="userSpaceOnUse" x="262" y="22" width="54" height="58">
<path d="M291.542 78.4501C289.141 79.6196 286.276 79.4181 284.027 77.9215L266.26 66.0999C264.011 64.6033 262.718 62.0389 262.87 59.3727L264.066 38.3133C264.217 35.6471 265.79 33.2842 268.19 32.1147L287.153 22.8769C289.554 21.7073 292.419 21.9088 294.668 23.4055L312.435 35.227C314.684 36.7237 315.976 39.2881 315.825 41.9543L314.629 63.0137C314.477 65.6798 312.905 68.0427 310.504 69.2123L291.542 78.4501Z" fill="#4B5EB2"/>
</mask>
<g mask="url(#mask0)">
<path d="M319.834 70.6813L289.451 50.4653L309.355 20.5521L339.737 40.7681L319.834 70.6813Z" fill="#FF6767"/>
<path d="M269.567 80.3907L239.184 60.1747L259.087 30.2615L289.47 50.4775L269.567 80.3907Z" fill="#FF6767"/>
<path fill-rule="evenodd" clip-rule="evenodd" d="M259.068 30.2493L289.451 50.4653L295.48 41.4035L310.451 34.0258L303.477 29.3855L309.354 20.5521L278.972 0.336111L259.068 30.2493Z" fill="#FF6767"/>
<path fill-rule="evenodd" clip-rule="evenodd" d="M269.568 80.3913L299.95 100.607L319.854 70.6941L289.471 50.4781L283.175 59.9406L283.178 59.8928L268.207 67.2706L275.201 71.9242L269.568 80.3913Z" fill="#FF6767"/>
</g>
<path d="M280.213 44.5845C283.524 39.6079 290.29 38.2888 295.324 41.6384C300.358 44.9879 301.754 51.7375 298.443 56.7141C295.132 61.6908 288.366 63.0098 283.332 59.6603C278.298 56.3108 276.902 49.5612 280.213 44.5845Z" fill="white"/>
</g>
<g clip-path="url(#clip2)">
<mask id="mask1" mask-type="alpha" maskUnits="userSpaceOnUse" x="316" y="48" width="22" height="25">
<path d="M318.337 67.5534C317.42 66.9957 316.855 65.9649 316.855 64.8495L316.855 56.0386C316.855 54.9231 317.42 53.8924 318.337 53.3346L325.582 48.9292C326.5 48.3715 327.63 48.3715 328.547 48.9292L335.792 53.3346C336.709 53.8924 337.274 54.9231 337.274 56.0386L337.274 64.8494C337.274 65.9649 336.709 66.9957 335.792 67.5534L328.547 71.9588C327.63 72.5166 326.5 72.5166 325.582 71.9588L318.337 67.5534Z" fill="#4B5EB2"/>
</mask>
<g mask="url(#mask1)">
<path d="M327.153 75.5017L327.153 60.4343L341.46 60.4343L341.46 75.5017L327.153 75.5017Z" fill="#F9BC4A"/>
<path d="M312.847 60.4438L312.847 45.3763L327.153 45.3763L327.153 60.4438L312.847 60.4438Z" fill="#F9BC4A"/>
<path fill-rule="evenodd" clip-rule="evenodd" d="M327.153 45.3668L327.153 60.4343L331.487 60.4343L337.235 63.8928L337.235 60.4343L341.46 60.4343L341.46 45.3668L327.153 45.3668Z" fill="#F9BC4A"/>
<path fill-rule="evenodd" clip-rule="evenodd" d="M312.847 60.4441L312.847 75.5115L327.153 75.5115L327.153 60.4441L322.628 60.4441L322.644 60.4341L316.896 56.9756L316.896 60.4441L312.847 60.4441Z" fill="#F9BC4A"/>
</g>
<path d="M327.065 55.9139C329.445 55.9139 331.375 57.9376 331.375 60.4341C331.375 62.9305 329.445 64.9543 327.065 64.9543C324.685 64.9543 322.755 62.9305 322.755 60.4341C322.755 57.9376 324.685 55.9139 327.065 55.9139Z" fill="white"/>
</g>
<g clip-path="url(#clip3)">
<mask id="mask2" mask-type="alpha" maskUnits="userSpaceOnUse" x="239" y="36" width="22" height="26">
<path d="M240.798 55.7709C239.891 55.1404 239.376 54.0463 239.446 52.9008L240.001 43.8531C240.072 42.7076 240.717 41.6848 241.694 41.1698L249.411 37.1026C250.388 36.5877 251.549 36.6589 252.456 37.2894L259.618 42.2699C260.525 42.9005 261.04 43.9945 260.97 45.14L260.414 54.1878C260.344 55.3332 259.699 56.3561 258.722 56.871L251.004 60.9383C250.027 61.4532 248.867 61.382 247.96 60.7514L240.798 55.7709Z" fill="#4B5EB2"/>
</mask>
<g mask="url(#mask2)">
<path d="M249.35 64.4885L250.299 49.016L264.99 49.9177L264.041 65.3902L249.35 64.4885Z" fill="#6398FF"/>
<path d="M235.608 48.1241L236.557 32.6515L251.249 33.5532L250.299 49.0257L235.608 48.1241Z" fill="#6398FF"/>
<path fill-rule="evenodd" clip-rule="evenodd" d="M251.249 33.5435L250.299 49.016L254.75 49.2891L260.434 53.2029L260.652 49.6514L264.99 49.9177L265.94 34.4451L251.249 33.5435Z" fill="#6398FF"/>
<path fill-rule="evenodd" clip-rule="evenodd" d="M235.608 48.1244L234.658 63.5969L249.349 64.4986L250.299 49.0261L245.652 48.7409L245.669 48.7317L239.985 44.8179L239.766 48.3796L235.608 48.1244Z" fill="#6398FF"/>
</g>
<path d="M250.494 44.3685C252.938 44.5185 254.792 46.7183 254.634 49.2819C254.477 51.8455 252.368 53.802 249.924 53.652C247.48 53.502 245.626 51.3022 245.783 48.7386C245.941 46.1751 248.05 44.2185 250.494 44.3685Z" fill="white"/>
</g>
<g clip-path="url(#clip4)">
<mask id="mask3" mask-type="alpha" maskUnits="userSpaceOnUse" x="296" y="69" width="38" height="42">
<path d="M330.785 79.0563C332.315 80.1195 333.176 81.9474 333.044 83.8515L331.997 98.8913C331.864 100.795 330.758 102.486 329.095 103.327L315.962 109.969C314.299 110.81 312.332 110.673 310.802 109.61L298.715 101.213C297.185 100.149 296.323 98.3215 296.456 96.4174L297.503 81.3776C297.635 79.4735 298.741 77.7825 300.404 76.9416L313.538 70.2995C315.201 69.4586 317.168 69.5955 318.698 70.6587L330.785 79.0563Z" fill="#4B5EB2"/>
</mask>
<g mask="url(#mask3)">
<path d="M316.385 64.4208L314.594 90.1403L289.694 88.407L291.484 62.6875L316.385 64.4208Z" fill="#7DE064"/>
<path d="M339.496 91.8575L337.706 117.577L312.805 115.844L314.595 90.1242L339.496 91.8575Z" fill="#7DE064"/>
<path fill-rule="evenodd" clip-rule="evenodd" d="M312.804 115.86L314.594 90.1404L307.051 89.6153L297.458 83.0154L297.047 88.9189L289.693 88.4071L287.903 114.127L312.804 115.86Z" fill="#7DE064"/>
<path fill-rule="evenodd" clip-rule="evenodd" d="M339.496 91.8569L341.287 66.1373L316.386 64.404L314.595 90.1236L322.472 90.6719L322.442 90.6868L332.036 97.2868L332.448 91.3662L339.496 91.8569Z" fill="#7DE064"/>
</g>
<path d="M314.211 97.8672C310.068 97.5789 306.95 93.8906 307.247 89.6292C307.543 85.3679 311.142 82.1471 315.285 82.4355C319.428 82.7238 322.546 86.4121 322.249 90.6735C321.952 94.9348 318.354 98.1556 314.211 97.8672Z" fill="white"/>
</g>
<g clip-path="url(#clip5)">
<mask id="mask4" mask-type="alpha" maskUnits="userSpaceOnUse" x="262" y="22" width="54" height="58">
<path d="M291.542 78.4501C289.141 79.6196 286.276 79.4181 284.027 77.9215L266.26 66.0999C264.011 64.6033 262.718 62.0389 262.87 59.3727L264.066 38.3133C264.217 35.6471 265.79 33.2842 268.19 32.1147L287.153 22.8769C289.554 21.7073 292.419 21.9088 294.668 23.4055L312.435 35.227C314.684 36.7237 315.976 39.2881 315.825 41.9543L314.629 63.0137C314.477 65.6798 312.905 68.0427 310.504 69.2123L291.542 78.4501Z" fill="#4B5EB2"/>
</mask>
<g mask="url(#mask4)">
<path d="M319.834 70.6813L289.451 50.4653L309.355 20.5521L339.737 40.7681L319.834 70.6813Z" fill="#FF6767"/>
<path d="M269.567 80.3907L239.184 60.1747L259.087 30.2615L289.47 50.4775L269.567 80.3907Z" fill="#FF6767"/>
<path fill-rule="evenodd" clip-rule="evenodd" d="M259.068 30.2493L289.451 50.4653L295.48 41.4035L310.451 34.0258L303.477 29.3855L309.354 20.5521L278.972 0.336111L259.068 30.2493Z" fill="#FF6767"/>
<path fill-rule="evenodd" clip-rule="evenodd" d="M269.568 80.3913L299.95 100.607L319.854 70.6941L289.471 50.4781L283.175 59.9406L283.178 59.8928L268.207 67.2706L275.201 71.9242L269.568 80.3913Z" fill="#FF6767"/>
</g>
<path d="M280.213 44.5845C283.524 39.6079 290.29 38.2888 295.324 41.6384C300.358 44.9879 301.754 51.7375 298.443 56.7141C295.132 61.6908 288.366 63.0098 283.332 59.6603C278.298 56.3108 276.902 49.5612 280.213 44.5845Z" fill="white"/>
</g>
<g clip-path="url(#clip6)">
<mask id="mask5" mask-type="alpha" maskUnits="userSpaceOnUse" x="316" y="48" width="22" height="25">
<path d="M318.337 67.5534C317.42 66.9957 316.855 65.9649 316.855 64.8495L316.855 56.0386C316.855 54.9231 317.42 53.8924 318.337 53.3346L325.582 48.9292C326.5 48.3715 327.63 48.3715 328.547 48.9292L335.792 53.3346C336.709 53.8924 337.274 54.9231 337.274 56.0386L337.274 64.8494C337.274 65.9649 336.709 66.9957 335.792 67.5534L328.547 71.9588C327.63 72.5166 326.5 72.5166 325.582 71.9588L318.337 67.5534Z" fill="#4B5EB2"/>
</mask>
<g mask="url(#mask5)">
<path d="M327.153 75.5017L327.153 60.4343L341.46 60.4343L341.46 75.5017L327.153 75.5017Z" fill="#F9BC4A"/>
<path d="M312.847 60.4438L312.847 45.3763L327.154 45.3763L327.154 60.4438L312.847 60.4438Z" fill="#F9BC4A"/>
<path fill-rule="evenodd" clip-rule="evenodd" d="M327.153 45.3668L327.153 60.4343L331.487 60.4343L337.235 63.8928L337.235 60.4343L341.46 60.4343L341.46 45.3668L327.153 45.3668Z" fill="#F9BC4A"/>
<path fill-rule="evenodd" clip-rule="evenodd" d="M312.847 60.4441L312.847 75.5115L327.154 75.5115L327.154 60.4441L322.628 60.4441L322.644 60.4341L316.897 56.9756L316.897 60.4441L312.847 60.4441Z" fill="#F9BC4A"/>
</g>
<path d="M327.065 55.9139C329.445 55.9139 331.375 57.9376 331.375 60.4341C331.375 62.9305 329.445 64.9543 327.065 64.9543C324.685 64.9543 322.755 62.9305 322.755 60.4341C322.755 57.9376 324.685 55.9139 327.065 55.9139Z" fill="white"/>
</g>
<g clip-path="url(#clip7)">
<mask id="mask6" mask-type="alpha" maskUnits="userSpaceOnUse" x="239" y="36" width="22" height="26">
<path d="M240.798 55.7709C239.891 55.1404 239.376 54.0463 239.446 52.9008L240.001 43.8531C240.072 42.7076 240.717 41.6848 241.694 41.1698L249.411 37.1026C250.388 36.5877 251.549 36.6589 252.456 37.2894L259.618 42.2699C260.525 42.9005 261.04 43.9945 260.97 45.14L260.414 54.1878C260.344 55.3332 259.699 56.3561 258.722 56.871L251.004 60.9383C250.027 61.4532 248.867 61.382 247.96 60.7514L240.798 55.7709Z" fill="#4B5EB2"/>
</mask>
<g mask="url(#mask6)">
<path d="M249.35 64.4885L250.299 49.016L264.99 49.9177L264.041 65.3902L249.35 64.4885Z" fill="#6398FF"/>
<path d="M235.608 48.1241L236.558 32.6515L251.249 33.5532L250.299 49.0257L235.608 48.1241Z" fill="#6398FF"/>
<path fill-rule="evenodd" clip-rule="evenodd" d="M251.249 33.5435L250.299 49.016L254.75 49.2891L260.434 53.2029L260.652 49.6514L264.991 49.9177L265.94 34.4451L251.249 33.5435Z" fill="#6398FF"/>
<path fill-rule="evenodd" clip-rule="evenodd" d="M235.608 48.1244L234.658 63.5969L249.349 64.4986L250.299 49.0261L245.652 48.7409L245.669 48.7317L239.985 44.8179L239.766 48.3796L235.608 48.1244Z" fill="#6398FF"/>
</g>
<path d="M250.494 44.3685C252.938 44.5185 254.792 46.7183 254.634 49.2819C254.477 51.8455 252.368 53.802 249.924 53.652C247.48 53.502 245.626 51.3022 245.783 48.7386C245.941 46.1751 248.05 44.2185 250.494 44.3685Z" fill="white"/>
</g>
<g clip-path="url(#clip8)">
<mask id="mask7" mask-type="alpha" maskUnits="userSpaceOnUse" x="296" y="69" width="38" height="42">
<path d="M330.785 79.0563C332.315 80.1195 333.176 81.9474 333.044 83.8515L331.997 98.8913C331.864 100.795 330.758 102.486 329.096 103.327L315.962 109.969C314.299 110.81 312.332 110.673 310.802 109.61L298.715 101.213C297.185 100.149 296.324 98.3215 296.456 96.4174L297.503 81.3776C297.636 79.4735 298.742 77.7825 300.404 76.9416L313.538 70.2995C315.201 69.4586 317.168 69.5955 318.698 70.6587L330.785 79.0563Z" fill="#4B5EB2"/>
</mask>
<g mask="url(#mask7)">
<path d="M316.385 64.4208L314.595 90.1403L289.694 88.407L291.484 62.6875L316.385 64.4208Z" fill="#7DE064"/>
<path d="M339.496 91.8575L337.706 117.577L312.805 115.844L314.595 90.1242L339.496 91.8575Z" fill="#7DE064"/>
<path fill-rule="evenodd" clip-rule="evenodd" d="M312.804 115.86L314.595 90.1404L307.051 89.6153L297.458 83.0154L297.047 88.9189L289.694 88.4071L287.903 114.127L312.804 115.86Z" fill="#7DE064"/>
<path fill-rule="evenodd" clip-rule="evenodd" d="M339.496 91.8569L341.287 66.1373L316.386 64.404L314.595 90.1236L322.472 90.6719L322.443 90.6868L332.036 97.2868L332.448 91.3662L339.496 91.8569Z" fill="#7DE064"/>
</g>
<path d="M314.211 97.8672C310.068 97.5789 306.95 93.8906 307.247 89.6292C307.544 85.3679 311.142 82.1471 315.285 82.4355C319.428 82.7238 322.546 86.4121 322.249 90.6735C321.953 94.9348 318.354 98.1556 314.211 97.8672Z" fill="white"/>
</g>
</g>
<defs>
<clipPath id="clip0">
<rect x="0.956543" y="0.569336" width="474" height="242" rx="8" fill="white"/>
</clipPath>
<clipPath id="clip1">
<rect width="58.0352" height="51.8191" fill="white" transform="translate(299.135 88.2935) rotate(-146.361)"/>
</clipPath>
<clipPath id="clip2">
<rect width="23.9613" height="20.6333" fill="white" transform="translate(316.749 72.4148) rotate(-90)"/>
</clipPath>
<clipPath id="clip3">
<rect width="24.6518" height="21.2279" fill="white" transform="translate(238.86 60.6629) rotate(-86.4878)"/>
</clipPath>
<clipPath id="clip4">
<rect width="41" height="36" fill="white" transform="translate(334.127 70.9505) rotate(93.9818)"/>
</clipPath>
<clipPath id="clip5">
<rect width="58.0352" height="51.8191" fill="white" transform="translate(299.135 88.2935) rotate(-146.361)"/>
</clipPath>
<clipPath id="clip6">
<rect width="23.9613" height="20.6333" fill="white" transform="translate(316.749 72.4148) rotate(-90)"/>
</clipPath>
<clipPath id="clip7">
<rect width="24.6518" height="21.2279" fill="white" transform="translate(238.86 60.6629) rotate(-86.4878)"/>
</clipPath>
<clipPath id="clip8">
<rect width="41" height="36" fill="white" transform="translate(334.127 70.9505) rotate(93.9818)"/>
</clipPath>
</defs>
</svg>
